<?xml version="1.0" standalone="no"?>
<!DOCTYPE svg PUBLIC "-//W3C//DTD SVG 1.1//EN" "http://www.w3.org/Graphics/SVG/1.1/DTD/svg11.dtd" >
<svg>
<metadata>
Created by FontForge 20090914 at Fri Feb 24 03:31:02 2012
 By root
Generated by Fontographer 4.0.4
</metadata>
<defs>
<font id="LCDUltra" horiz-adv-x="535" >
  <font-face 
    font-family="LCD"
    font-weight="400"
    font-stretch="normal"
    units-per-em="1000"
    panose-1="0 0 4 0 0 0 0 0 0 0"
    ascent="800"
    descent="-200"
    x-height="800"
    cap-height="800"
    bbox="-29 -61 905 861"
    underline-thickness="20"
    underline-position="-123"
    unicode-range="U+0020-U+2010"
  />
<missing-glyph horiz-adv-x="500" 
d="M63 0v800h375v-800h-375zM125 63h250v675h-250v-675z" />
    <glyph glyph-name=".notdef" horiz-adv-x="500" 
d="M63 0v800h375v-800h-375zM125 63h250v675h-250v-675z" />
    <glyph glyph-name=".null" horiz-adv-x="0" 
 />
    <glyph glyph-name="nonmarkingreturn" horiz-adv-x="300" 
 />
    <glyph glyph-name="space" unicode=" " horiz-adv-x="300" 
 />
    <glyph glyph-name="exclam" unicode="!" horiz-adv-x="182" 
d="M161 468l-69 -61l-52 61l38 271l69 61l52 -61zM123 197l-69 -61l-52 61l18 135l70 61l52 -61zM104 61l-69 -61l-53 61l70 61z" />
    <glyph glyph-name="quotedbl" unicode="&#x22;" horiz-adv-x="389" 
d="M157 600l-65 -57l-49 57l14 96l65 57l49 -57zM332 600l-65 -57l-49 57l13 96l65 57l49 -57z" />
    <glyph glyph-name="dollar" unicode="$" horiz-adv-x="536" 
d="M542 657l-69 -61l-53 61l2 14l70 61l52 -61zM485 739l-69 -61h-41l-58 68l-77 -68h-41l-52 61l70 61h216zM338 468l-69 -61l-52 61l28 203l70 61l52 -61zM438 400l-70 -61h-40l-53 61l70 61h40zM163 468l-70 -61l-52 61l28 203l70 61l52 -61zM468 129l-70 -61l-52 61
l29 203l69 61l52 -61zM261 400l-70 -61h-40l-53 61l70 61h40zM291 129l-70 -61l-52 61l28 203l70 61l52 -61zM390 61l-69 -61h-217l-52 61l69 61h41l58 -68l77 68h41zM114 129l-70 -61l-52 61l2 14l69 61l53 -61z" />
    <glyph glyph-name="quotesingle" unicode="'" horiz-adv-x="183" 
d="M146 596l-70 -62l-53 62l14 99l70 61l53 -61z" />
    <glyph glyph-name="parenleft" unicode="(" horiz-adv-x="256" 
d="M285 739l-70 -61h-28l-52 61l69 61h29zM150 468l-72 -63h-59l38 266l69 61l53 -61zM102 129l-69 -61l-52 61l37 266h59l54 -63zM190 61l-70 -61h-28l-53 61l70 61h28z" />
    <glyph glyph-name="parenright" unicode=")" horiz-adv-x="256" 
d="M217 739l-70 -61h-28l-53 61l70 61h28zM275 671l-37 -266h-59l-54 63l29 203l69 61zM199 129l-69 -61l-53 61l29 203l72 63h59zM121 61l-69 -61h-29l-52 61l70 61h28z" />
    <glyph glyph-name="asterisk" unicode="*" horiz-adv-x="267" 
d="M241 428l-26 -23h-76l11 76l35 23h66zM231 363l-9 -66h-66l-29 23l11 76h76zM140 481l-11 -76h-76l-19 23l11 76h65zM128 395l-11 -75l-36 -23h-66l10 66l27 32h76z" />
    <glyph glyph-name="plus" unicode="+" horiz-adv-x="424" 
d="M283 469l-70 -62l-53 62l11 76l70 61l53 -61zM414 400l-70 -61h-72l-53 61l70 61h72zM204 400l-70 -61h-71l-53 61l70 61h72zM253 255l-70 -62l-53 62l11 76l70 62l53 -62z" />
    <glyph glyph-name="comma" unicode="," horiz-adv-x="182" 
d="M152 63l-139 -122l26 183l69 61l52 -61z" />
    <glyph glyph-name="hyphen" unicode="&#x2010;" horiz-adv-x="399" 
d="M369 400l-69 -61h-218l-52 61l69 61h218z" />
    <glyph glyph-name="period" unicode="." horiz-adv-x="182" 
d="M147 63l-69 -61l-52 61l8 61l70 61l52 -61z" />
    <glyph glyph-name="slash" unicode="/" horiz-adv-x="506" 
d="M517 692l-196 -287h-62l18 133l180 262h75zM228 262l-179 -262h-75l15 108l195 287h63z" />
    <glyph glyph-name="zero" unicode="0" horiz-adv-x="538" 
d="M163 468l-70 -61l-52 61l28 203l70 61l52 -61zM115 129l-69 -61l-53 61l29 203l69 61l53 -61zM390 61l-69 -61h-217l-52 61l69 61h217zM468 129l-69 -61l-53 61l29 203l69 61l53 -61zM516 468l-70 -61l-52 61l28 203l70 61l52 -61zM486 739l-70 -61h-216l-53 61l70 61
h216z" />
    <glyph glyph-name="one" unicode="1" horiz-adv-x="538" 
d="M399 469l-70 -62l-53 62l38 270l70 61l53 -61zM274 565l-61 -54l-42 49l9 61l117 103zM341 61l-70 -61l-54 51l40 280l70 62l52 -62z" />
    <glyph glyph-name="two" unicode="2" horiz-adv-x="538" 
d="M189 657l-69 -61l-52 61l1 14l70 61l52 -61zM486 739l-70 -61h-216l-53 61l70 61h216zM516 468l-70 -61l-52 61l28 203l70 61l52 -61zM439 400l-69 -61h-218l-52 61l69 61h218zM115 129l-139 -122l46 327l70 61l52 -61zM444 0h-461l138 122h218z" />
    <glyph glyph-name="three" unicode="3" horiz-adv-x="538" 
d="M496 468l-69 -61l-53 61l29 203l69 61l52 -61zM466 739l-70 -61h-245l-52 61l69 61h246zM418 400l-69 -61h-189l-52 61l69 61h189zM448 129l-69 -61l-52 61l28 203l70 61l52 -61zM371 61l-70 -61h-245l-53 61l70 61h245z" />
    <glyph glyph-name="four" unicode="4" horiz-adv-x="538" 
d="M516 468l-70 -61l-52 61l38 271l69 61l53 -61zM163 468l-70 -61l-52 61l31 218l69 61l52 -61zM438 400l-70 -61h-217l-53 61l70 61h218zM458 61l-69 -61l-52 61l38 271l69 61l53 -61z" />
    <glyph glyph-name="five" unicode="5" horiz-adv-x="538" 
d="M556 800l-139 -122h-218l-105 122h462zM163 468l-73 -63h-58l54 388l106 -123zM469 129l-70 -61l-52 61l28 203l70 61l52 -61zM438 400l-69 -61h-218l-52 61l69 61h218zM390 61l-70 -61h-216l-53 61l70 61h216zM115 129l-70 -61l-52 61l2 14l69 61l52 -61z" />
    <glyph glyph-name="six" unicode="6" horiz-adv-x="538" 
d="M486 739l-70 -61h-216l-53 61l70 61h216zM163 468l-72 -63h-59l37 266l70 61l52 -61zM115 129l-69 -61l-53 61l38 266h58l55 -63zM390 61l-69 -61h-217l-52 61l69 61h217zM468 129l-69 -61l-53 61l29 203l69 61l53 -61zM438 400l-70 -61h-217l-53 61l70 61h218z" />
    <glyph glyph-name="seven" unicode="7" horiz-adv-x="538" 
d="M558 739l-70 -61h-361l-52 61l70 61h360zM455 462l-47 -57h-62l15 103l113 160h10zM318 277l-182 -277h-75l15 108l196 287h62z" />
    <glyph glyph-name="eight" unicode="8" horiz-adv-x="538" 
d="M163 468l-70 -61l-52 61l28 203l70 61l52 -61zM115 129l-69 -61l-53 61l29 203l69 61l53 -61zM390 61l-69 -61h-217l-52 61l69 61h217zM468 129l-69 -61l-53 61l29 203l69 61l53 -61zM516 468l-70 -61l-52 61l28 203l70 61l52 -61zM486 739l-70 -61h-216l-53 61l70 61
h216zM438 400l-70 -61h-217l-53 61l70 61h218z" />
    <glyph glyph-name="nine" unicode="9" horiz-adv-x="538" 
d="M390 61l-69 -61h-217l-52 61l69 61h217zM468 129l-69 -61l-53 61l29 203l72 63h58zM544 671l-37 -266h-59l-54 63l28 203l70 61zM486 739l-70 -61h-216l-53 61l70 61h216zM163 468l-70 -61l-52 61l28 203l70 61l52 -61zM439 400l-69 -61h-218l-52 61l69 61h218z" />
    <glyph glyph-name="colon" unicode=":" horiz-adv-x="182" 
d="M163 286l-69 -61l-52 61l8 61l70 61l52 -61zM132 61l-70 -61l-52 61l8 61l70 60l52 -60z" />
    <glyph glyph-name="semicolon" unicode=";" horiz-adv-x="182" 
d="M167 286l-69 -61l-52 61l8 61l70 61l52 -61zM136 63l-139 -122l26 183l69 61l53 -61z" />
    <glyph glyph-name="less" unicode="&#x3c;" horiz-adv-x="190" 
d="M177 521l-69 -116h-77l14 103l149 204h10zM116 88h-10l-91 204l14 103h77l37 -116z" />
    <glyph glyph-name="equal" unicode="=" horiz-adv-x="399" 
d="M393 393l-70 -61h-217l-53 61l70 61h217zM346 61l-69 -61h-219l-52 61l69 61h219z" />
    <glyph glyph-name="greater" unicode="&#x3e;" horiz-adv-x="190" 
d="M161 405h-77l-37 116l27 191h10l91 -204zM145 292l-149 -204h-10l27 191l70 116h76z" />
    <glyph glyph-name="question" unicode="?" horiz-adv-x="466" 
d="M409 747l-78 -69h-201l-52 61l69 61h217zM446 468l-69 -61l-66 76l27 188l78 68l59 -68zM368 400l-69 -61h-41l-52 61l86 76h11zM231 197l-70 -61l-52 61l19 135l69 61l53 -61zM212 61l-70 -61l-52 61l69 61z" />
    <glyph glyph-name="A" unicode="A" horiz-adv-x="538" 
d="M104 61l-69 -61l-53 61l47 334h59l54 -63zM163 468l-72 -63h-60l37 265l71 62l52 -61zM486 739l-69 -61h-216l-53 61l70 61h216zM509 405h-60l-54 63l28 203l70 61l53 -62zM507 395l-46 -334l-70 -61l-52 61l38 271l72 63h58zM439 400l-70 -61h-217l-53 61l70 61h217z
" />
    <glyph glyph-name="B" unicode="B" horiz-adv-x="536" 
d="M114 129l-139 -122l54 388h59l54 -63zM161 468l-72 -63h-58l54 388l105 -122zM485 739l-69 -61h-218l-104 122h339zM515 468l-69 -61l-52 61l28 203l70 61l52 -61zM468 129l-70 -61l-52 61l29 203l69 61l52 -61zM390 61l-69 -61h-340l139 122h218zM438 400l-70 -61h-217
l-53 61l70 61h217z" />
    <glyph glyph-name="C" unicode="C" 
d="M541 657l-70 -61l-52 61l2 14l69 61l53 -61zM484 739l-69 -61h-217l-52 61l69 61h217zM161 468l-72 -63h-58l37 266l70 61l52 -61zM114 129l-70 -61l-52 61l37 266h59l54 -63zM389 61l-70 -61h-216l-52 61l69 61h216zM467 129l-70 -61l-52 61l2 14l69 61l53 -61z" />
    <glyph glyph-name="D" unicode="D" horiz-adv-x="536" 
d="M161 468l-72 -63h-58l54 388l105 -122zM114 129l-139 -122l54 388h59l54 -63zM390 61l-69 -61h-340l139 122h218zM468 129l-70 -61l-52 61l29 203l71 63h59zM544 671l-37 -266h-59l-54 63l28 203l70 61zM485 739l-69 -61h-218l-104 122h339z" />
    <glyph glyph-name="E" unicode="E" horiz-adv-x="466" 
d="M484 739l-69 -61h-217l-52 61l69 61h217zM161 468l-72 -63h-58l37 266l70 61l52 -61zM114 129l-70 -61l-52 61l37 266h59l54 -63zM389 61l-70 -61h-216l-52 61l69 61h216zM379 400l-70 -61h-160l-52 61l69 61h160z" />
    <glyph glyph-name="F" unicode="F" horiz-adv-x="466" 
d="M484 739l-69 -61h-217l-52 61l69 61h217zM161 468l-72 -63h-58l37 266l70 61l52 -61zM379 400l-70 -61h-160l-52 61l69 61h160zM104 61l-69 -61l-53 61l47 334h59l54 -63z" />
    <glyph glyph-name="G" unicode="G" 
d="M484 739l-69 -61h-217l-52 61l69 61h217zM161 468l-72 -63h-58l37 266l70 61l52 -61zM114 129l-70 -61l-52 61l37 266h59l54 -63zM389 61l-70 -61h-216l-52 61l69 61h216zM467 129l-70 -61l-52 61l28 203l139 122zM506 461l-139 -122h-41l-52 61l70 61h162z" />
    <glyph glyph-name="H" unicode="H" 
d="M552 739l-47 -334h-58l-54 63l38 271l69 61zM161 468l-72 -63h-58l47 334l69 61l52 -61zM436 400l-69 -61h-218l-52 61l69 61h218zM457 61l-69 -61l-53 61l38 271l72 63h59zM104 61l-69 -61l-53 61l47 334h59l54 -63z" />
    <glyph glyph-name="I" unicode="I" horiz-adv-x="182" 
d="M161 468l-69 -61l-52 61l38 271l69 61l52 -61zM104 61l-69 -61l-53 61l38 271l70 61l52 -61z" />
    <glyph glyph-name="J" unicode="J" horiz-adv-x="536" 
d="M485 739l-69 -61h-41l-52 61l69 61h41zM544 671l-37 -266h-59l-54 63l28 203l70 61zM468 129l-70 -61l-52 61l29 203l71 63h59zM389 61l-70 -61h-216l-52 61l69 61h216zM114 129l-70 -61l-52 61l2 14l69 61l53 -61z" />
    <glyph glyph-name="K" unicode="K" horiz-adv-x="520" 
d="M529 678l-209 -273h-50l-45 53l261 342h60zM161 468l-72 -63h-58l47 334l69 61l52 -61zM259 400l-69 -61h-41l-52 61l69 61h41zM434 0h-60l-166 342l60 53h51l132 -273zM104 61l-69 -61l-53 61l47 334h59l54 -63z" />
    <glyph glyph-name="L" unicode="L" horiz-adv-x="466" 
d="M161 468l-72 -63h-58l47 334l69 61l52 -61zM114 129l-70 -61l-52 61l37 266h59l54 -63zM389 61l-70 -61h-216l-52 61l69 61h216z" />
    <glyph glyph-name="M" unicode="M" horiz-adv-x="888" 
d="M104 61l-69 -61l-53 61l47 334h59l54 -63zM161 468l-72 -63h-58l37 266l70 61l52 -61zM484 739l-69 -61h-217l-52 61l69 61h217zM837 739l-69 -61h-217l-52 61l69 61h217zM896 671l-38 -266h-58l-55 63l29 203l69 61zM810 61l-69 -61l-53 61l38 271l72 63h59zM514 468
l-69 -61l-52 61l28 203l69 61l53 -61zM457 61l-69 -61l-53 61l38 271l70 61l52 -61z" />
    <glyph glyph-name="N" unicode="N" 
d="M552 739l-47 -334h-58l-54 63l38 271l69 61zM382 467h-68l-123 143l21 151h28l157 -184zM161 468l-72 -63h-58l47 334l69 61l52 -61zM457 61l-69 -61l-53 61l38 271l72 63h59zM104 61l-69 -61l-53 61l47 334h59l54 -63z" />
    <glyph glyph-name="O" unicode="O" 
d="M161 468l-72 -63h-58l37 266l70 61l52 -61zM114 129l-70 -61l-52 61l37 266h59l54 -63zM543 671l-38 -266h-58l-54 63l28 203l69 61zM467 129l-70 -61l-52 61l28 203l72 63h59zM389 61l-70 -61h-216l-52 61l69 61h216zM484 739l-69 -61h-217l-52 61l69 61h217z" />
    <glyph glyph-name="P" unicode="P" horiz-adv-x="537" 
d="M517 468l-70 -61l-52 61l28 203l70 61l52 -61zM486 739l-69 -61h-218l-104 122h339zM163 468l-72 -63h-59l54 388l105 -122zM439 400l-70 -61h-217l-53 61l70 61h217zM104 61l-69 -61l-53 61l47 334h59l54 -63z" />
    <glyph glyph-name="Q" unicode="Q" 
d="M161 468l-72 -63h-58l37 266l70 61l52 -61zM114 129l-70 -61l-52 61l37 266h59l54 -63zM543 671l-38 -266h-58l-54 63l28 203l69 61zM467 129l-70 -61l-52 61l28 203l72 63h59zM389 61l-70 -61h-216l-52 61l69 61h216zM484 739l-69 -61h-217l-52 61l69 61h217zM333 133
l-52 88l20 137h24l32 -56z" />
    <glyph glyph-name="R" unicode="R" horiz-adv-x="537" 
d="M517 468l-70 -61l-52 61l28 203l70 61l52 -61zM486 739l-69 -61h-218l-104 122h339zM163 468l-72 -63h-59l54 388l105 -122zM439 400l-70 -61h-217l-53 61l70 61h217zM451 0h-120l-184 283l6 46h117l187 -286zM104 61l-69 -61l-53 61l47 334h59l54 -63z" />
    <glyph glyph-name="S" unicode="S" horiz-adv-x="536" 
d="M542 657l-69 -61l-53 61l2 14l70 61l52 -61zM485 739l-69 -61h-217l-52 61l70 61h216zM163 468l-70 -61l-52 61l28 203l70 61l52 -61zM438 400l-70 -61h-217l-53 61l70 61h217zM468 129l-70 -61l-52 61l29 203l69 61l52 -61zM389 61l-70 -61h-216l-52 61l69 61h216z
M114 129l-70 -61l-52 61l2 14l69 61l53 -61z" />
    <glyph glyph-name="T" unicode="T" horiz-adv-x="515" 
d="M532 739l-69 -61h-99l-58 68l-77 -68h-99l-52 61l69 61h333zM327 468l-69 -61l-53 61l29 203l69 61l53 -61zM270 61l-70 -61l-52 61l38 271l70 61l52 -61z" />
    <glyph glyph-name="U" unicode="U" 
d="M161 468l-72 -63h-58l47 334l69 61l52 -61zM114 129l-70 -61l-52 61l37 266h59l54 -63zM389 61l-70 -61h-216l-52 61l69 61h216zM467 129l-70 -61l-52 61l28 203l72 63h59zM552 739l-47 -334h-58l-54 63l38 271l69 61z" />
    <glyph glyph-name="V" unicode="V" horiz-adv-x="536" 
d="M554 739l-47 -334h-104l-14 33l43 301l69 61zM158 438l-22 -33h-104l47 334l69 61l53 -61zM498 346l-233 -346h-48l23 162l146 233h119zM207 0h-48l-137 346l7 49h120l80 -233z" />
    <glyph glyph-name="W" unicode="W" horiz-adv-x="888" 
d="M161 468l-72 -63h-58l47 334l69 61l52 -61zM114 129l-70 -61l-52 61l37 266h59l54 -63zM389 61l-70 -61h-216l-52 61l69 61h216zM742 61l-70 -61h-216l-52 61l69 61h216zM820 129l-70 -61l-52 61l28 203l72 63h59zM905 739l-47 -334h-58l-55 63l39 271l69 61zM467 129
l-70 -61l-52 61l28 203l70 61l52 -61zM514 468l-69 -61l-52 61l38 271l69 61l52 -61z" />
    <glyph glyph-name="X" unicode="X" horiz-adv-x="506" 
d="M515 677l-179 -272h-77l16 118l182 277h75zM248 405h-76l-103 272l17 123h75l104 -277zM420 0h-75l-104 277l16 118h77l103 -272zM230 277l-181 -277h-75l17 123l179 272h77z" />
    <glyph glyph-name="Y" unicode="Y" 
d="M514 468l-69 -61l-52 61l38 271l69 61l52 -61zM161 468l-69 -61l-52 61l38 271l69 61l52 -61zM467 129l-70 -61l-52 61l28 203l70 61l52 -61zM436 400l-69 -61h-218l-52 61l69 61h218zM389 61l-70 -61h-269l-53 61l70 61h269z" />
    <glyph glyph-name="Z" unicode="Z" horiz-adv-x="459" 
d="M477 739l-69 -61h-247l-52 61l69 61h247zM395 505l-97 -100h-62l16 118l127 145h39zM207 277l-126 -145h-39l23 163l96 100h63zM352 61l-70 -61h-247l-53 61l70 61h247z" />
    <glyph glyph-name="bracketleft" unicode="[" horiz-adv-x="323" 
d="M345 771l-106 -93h-41l-104 122h255zM162 468l-72 -63h-59l54 388l105 -122zM114 129l-139 -122l54 388h59l54 -63zM236 0h-255l139 122h41l79 -93z" />
    <glyph glyph-name="backslash" unicode="\" horiz-adv-x="506" 
d="M248 405h-62l-115 287l15 108h75l106 -262zM420 0h-75l-106 262l18 133h63l115 -287z" />
    <glyph glyph-name="bracketright" unicode="]" horiz-adv-x="323" 
d="M341 800l-138 -122h-41l-80 93l4 29h255zM293 405h-58l-55 63l29 203l139 122zM237 7l-104 122l28 203l72 63h59zM229 0h-255l4 29l106 93h40z" />
    <glyph glyph-name="underscore" unicode="_" horiz-adv-x="400" 
d="M370 61l-69 -61h-219l-52 61l69 61h219z" />
    <glyph glyph-name="a" unicode="a" horiz-adv-x="538" 
d="M104 61l-69 -61l-53 61l47 334h59l54 -63zM163 468l-72 -63h-60l37 265l71 62l52 -61zM486 739l-69 -61h-216l-53 61l70 61h216zM509 405h-60l-54 63l28 203l70 61l53 -62zM507 395l-46 -334l-70 -61l-52 61l38 271l72 63h58zM439 400l-70 -61h-217l-53 61l70 61h217z
" />
    <glyph glyph-name="b" unicode="b" horiz-adv-x="536" 
d="M114 129l-139 -122l54 388h59l54 -63zM161 468l-72 -63h-58l54 388l105 -122zM485 739l-69 -61h-218l-104 122h339zM515 468l-69 -61l-52 61l28 203l70 61l52 -61zM468 129l-70 -61l-52 61l29 203l69 61l52 -61zM390 61l-69 -61h-340l139 122h218zM438 400l-70 -61h-217
l-53 61l70 61h217z" />
    <glyph glyph-name="c" unicode="c" 
d="M541 657l-70 -61l-52 61l2 14l69 61l53 -61zM484 739l-69 -61h-217l-52 61l69 61h217zM161 468l-72 -63h-58l37 266l70 61l52 -61zM114 129l-70 -61l-52 61l37 266h59l54 -63zM389 61l-70 -61h-216l-52 61l69 61h216zM467 129l-70 -61l-52 61l2 14l69 61l53 -61z" />
    <glyph glyph-name="d" unicode="d" horiz-adv-x="536" 
d="M161 468l-72 -63h-58l54 388l105 -122zM114 129l-139 -122l54 388h59l54 -63zM390 61l-69 -61h-340l139 122h218zM468 129l-70 -61l-52 61l29 203l71 63h59zM544 671l-37 -266h-59l-54 63l28 203l70 61zM485 739l-69 -61h-218l-104 122h339z" />
    <glyph glyph-name="e" unicode="e" horiz-adv-x="466" 
d="M484 739l-69 -61h-217l-52 61l69 61h217zM161 468l-72 -63h-58l37 266l70 61l52 -61zM114 129l-70 -61l-52 61l37 266h59l54 -63zM389 61l-70 -61h-216l-52 61l69 61h216zM379 400l-70 -61h-160l-52 61l69 61h160z" />
    <glyph glyph-name="f" unicode="f" horiz-adv-x="466" 
d="M484 739l-69 -61h-217l-52 61l69 61h217zM161 468l-72 -63h-58l37 266l70 61l52 -61zM379 400l-70 -61h-160l-52 61l69 61h160zM104 61l-69 -61l-53 61l47 334h59l54 -63z" />
    <glyph glyph-name="g" unicode="g" 
d="M484 739l-69 -61h-217l-52 61l69 61h217zM161 468l-72 -63h-58l37 266l70 61l52 -61zM114 129l-70 -61l-52 61l37 266h59l54 -63zM389 61l-70 -61h-216l-52 61l69 61h216zM467 129l-70 -61l-52 61l28 203l139 122zM506 461l-139 -122h-41l-52 61l70 61h162z" />
    <glyph glyph-name="h" unicode="h" 
d="M552 739l-47 -334h-58l-54 63l38 271l69 61zM161 468l-72 -63h-58l47 334l69 61l52 -61zM436 400l-69 -61h-218l-52 61l69 61h218zM457 61l-69 -61l-53 61l38 271l72 63h59zM104 61l-69 -61l-53 61l47 334h59l54 -63z" />
    <glyph glyph-name="i" unicode="i" horiz-adv-x="182" 
d="M161 468l-69 -61l-52 61l38 271l69 61l52 -61zM104 61l-69 -61l-53 61l38 271l70 61l52 -61z" />
    <glyph glyph-name="j" unicode="j" horiz-adv-x="536" 
d="M554 739l-47 -334h-59l-54 63l38 271l70 61zM468 129l-70 -61l-52 61l29 203l71 63h59zM389 61l-70 -61h-216l-52 61l69 61h216zM114 129l-70 -61l-52 61l2 14l69 61l53 -61z" />
    <glyph glyph-name="k" unicode="k" horiz-adv-x="520" 
d="M529 678l-209 -273h-50l-45 53l261 342h60zM161 468l-72 -63h-58l47 334l69 61l52 -61zM259 400l-69 -61h-41l-52 61l69 61h41zM434 0h-60l-166 342l60 53h51l132 -273zM104 61l-69 -61l-53 61l47 334h59l54 -63z" />
    <glyph glyph-name="l" unicode="l" horiz-adv-x="466" 
d="M161 468l-72 -63h-58l47 334l69 61l52 -61zM114 129l-70 -61l-52 61l37 266h59l54 -63zM389 61l-70 -61h-216l-52 61l69 61h216z" />
    <glyph glyph-name="m" unicode="m" 
d="M552 739l-47 -334h-58l-54 63l38 271l69 61zM383 476l-63 -71h-47l16 118l113 160h10zM262 405h-47l-43 71l29 207h10l68 -160zM161 468l-72 -63h-58l47 334l69 61l52 -61zM457 61l-69 -61l-53 61l38 271l72 63h59zM104 61l-69 -61l-53 61l47 334h59l54 -63z" />
    <glyph glyph-name="n" unicode="n" 
d="M552 739l-47 -334h-58l-54 63l38 271l69 61zM382 467h-68l-123 143l21 151h28l157 -184zM161 468l-72 -63h-58l47 334l69 61l52 -61zM457 61l-69 -61l-53 61l38 271l72 63h59zM104 61l-69 -61l-53 61l47 334h59l54 -63z" />
    <glyph glyph-name="o" unicode="o" 
d="M161 468l-72 -63h-58l37 266l70 61l52 -61zM114 129l-70 -61l-52 61l37 266h59l54 -63zM543 671l-38 -266h-58l-54 63l28 203l69 61zM467 129l-70 -61l-52 61l28 203l72 63h59zM389 61l-70 -61h-216l-52 61l69 61h216zM484 739l-69 -61h-217l-52 61l69 61h217z" />
    <glyph glyph-name="p" unicode="p" horiz-adv-x="537" 
d="M517 468l-70 -61l-52 61l28 203l70 61l52 -61zM486 739l-69 -61h-218l-104 122h339zM163 468l-72 -63h-59l54 388l105 -122zM439 400l-70 -61h-217l-53 61l70 61h217zM104 61l-69 -61l-53 61l47 334h59l54 -63z" />
    <glyph glyph-name="q" unicode="q" 
d="M161 468l-72 -63h-58l37 266l70 61l52 -61zM114 129l-70 -61l-52 61l37 266h59l54 -63zM543 671l-38 -266h-58l-54 63l28 203l69 61zM467 129l-70 -61l-52 61l28 203l72 63h59zM389 61l-70 -61h-216l-52 61l69 61h216zM484 739l-69 -61h-217l-52 61l69 61h217zM333 133
l-52 88l20 137h24l32 -56z" />
    <glyph glyph-name="r" unicode="r" horiz-adv-x="537" 
d="M517 468l-70 -61l-52 61l28 203l70 61l52 -61zM486 739l-69 -61h-218l-104 122h339zM163 468l-72 -63h-59l54 388l105 -122zM439 400l-70 -61h-217l-53 61l70 61h217zM451 0h-120l-184 283l6 46h117l187 -286zM104 61l-69 -61l-53 61l47 334h59l54 -63z" />
    <glyph glyph-name="s" unicode="s" horiz-adv-x="536" 
d="M542 657l-69 -61l-53 61l2 14l70 61l52 -61zM485 739l-69 -61h-217l-52 61l70 61h216zM163 468l-70 -61l-52 61l28 203l70 61l52 -61zM438 400l-70 -61h-217l-53 61l70 61h217zM468 129l-70 -61l-52 61l29 203l69 61l52 -61zM389 61l-70 -61h-216l-52 61l69 61h216z
M114 129l-70 -61l-52 61l2 14l69 61l53 -61z" />
    <glyph glyph-name="t" unicode="t" horiz-adv-x="515" 
d="M532 739l-69 -61h-99l-58 68l-77 -68h-99l-52 61l69 61h333zM327 468l-69 -61l-53 61l29 203l69 61l53 -61zM270 61l-70 -61l-52 61l38 271l70 61l52 -61z" />
    <glyph glyph-name="u" unicode="u" 
d="M161 468l-72 -63h-58l47 334l69 61l52 -61zM114 129l-70 -61l-52 61l37 266h59l54 -63zM389 61l-70 -61h-216l-52 61l69 61h216zM467 129l-70 -61l-52 61l28 203l72 63h59zM552 739l-47 -334h-58l-54 63l38 271l69 61z" />
    <glyph glyph-name="v" unicode="v" horiz-adv-x="536" 
d="M554 739l-47 -334h-104l-14 33l43 301l69 61zM158 438l-22 -33h-104l47 334l69 61l53 -61zM498 346l-233 -346h-48l23 162l146 233h119zM207 0h-48l-137 346l7 49h120l80 -233z" />
    <glyph glyph-name="w" unicode="w" 
d="M552 739l-47 -334h-58l-54 63l38 271l69 61zM161 468l-72 -63h-58l47 334l69 61l52 -61zM457 61l-69 -61l-53 61l38 271l72 63h59zM333 117h-10l-68 160l16 118h47l44 -71zM244 277l-113 -160h-10l29 207l64 71h47zM104 61l-69 -61l-53 61l47 334h59l54 -63z" />
    <glyph glyph-name="x" unicode="x" horiz-adv-x="506" 
d="M515 677l-179 -272h-77l16 118l182 277h75zM248 405h-76l-103 272l17 123h75l104 -277zM420 0h-75l-104 277l16 118h77l103 -272zM230 277l-181 -277h-75l17 123l179 272h77z" />
    <glyph glyph-name="y" unicode="y" horiz-adv-x="536" 
d="M551 722l-185 -317h-92l14 103l169 292h105zM263 405h-91l-97 317l11 78h105l87 -292zM281 61l-69 -61l-53 61l38 271l70 61l52 -61z" />
    <glyph glyph-name="z" unicode="z" horiz-adv-x="459" 
d="M477 739l-69 -61h-247l-52 61l69 61h247zM395 505l-97 -100h-62l16 118l127 145h39zM207 277l-126 -145h-39l23 163l96 100h63zM352 61l-70 -61h-247l-53 61l70 61h247z" />
    <glyph glyph-name="bar" unicode="|" horiz-adv-x="182" 
d="M161 468l-69 -61l-52 61l46 332l70 61l52 -61zM96 0l-70 -61l-52 61l46 332l70 61l52 -61z" />
    <glyph glyph-name="nonbreakingspace" unicode="&#xa0;" horiz-adv-x="538" 
 />
  </font>
</defs>
</svg>
