<?xml version="1.0" encoding="UTF-8" standalone="no"?>
<!-- Created with Inkscape (http://www.inkscape.org/) -->

<svg
   xmlns:dc="http://purl.org/dc/elements/1.1/"
   xmlns:cc="http://creativecommons.org/ns#"
   xmlns:rdf="http://www.w3.org/1999/02/22-rdf-syntax-ns#"
   xmlns:svg="http://www.w3.org/2000/svg"
   xmlns="http://www.w3.org/2000/svg"
   xmlns:sodipodi="http://sodipodi.sourceforge.net/DTD/sodipodi-0.dtd"
   xmlns:inkscape="http://www.inkscape.org/namespaces/inkscape"
   version="1.0"
   width="365.30988"
   height="531.01007"
   id="svg10889"
   inkscape:version="0.48.1 "
   sodipodi:docname="AJAX.svg">
  <metadata
     id="metadata26">
    <rdf:RDF>
      <cc:Work
         rdf:about="">
        <dc:format>image/svg+xml</dc:format>
        <dc:type
           rdf:resource="http://purl.org/dc/dcmitype/StillImage" />
      </cc:Work>
    </rdf:RDF>
  </metadata>
  <sodipodi:namedview
     pagecolor="#ffffff"
     bordercolor="#666666"
     borderopacity="1"
     objecttolerance="10"
     gridtolerance="10"
     guidetolerance="10"
     inkscape:pageopacity="0"
     inkscape:pageshadow="2"
     inkscape:window-width="1280"
     inkscape:window-height="1004"
     id="namedview24"
     showgrid="false"
     fit-margin-top="0"
     fit-margin-left="0"
     fit-margin-right="0"
     fit-margin-bottom="0"
     inkscape:zoom="1.3902175"
     inkscape:cx="73.212563"
     inkscape:cy="381.34314"
     inkscape:window-x="-8"
     inkscape:window-y="-8"
     inkscape:window-maximized="1"
     inkscape:current-layer="svg10889" />
  <defs
     id="defs10904">
    <pattern
       id="pattern4002"
       patternTransform="translate(18.50938,18)"
       height="476"
       width="370"
       patternUnits="userSpaceOnUse">
      <rect
         style="fill:#00e5ff;fill-opacity:1"
         id="rect2240"
         width="370"
         height="476"
         x="0"
         y="0"
         rx="20"
         ry="20" />
    </pattern>
  </defs>
  <desc
     id="desc10891">wmf2svg</desc>
  <g
     transform="scale(0.899778,1.037129)"
     id="g1978">
    <rect
       width="406"
       height="512"
       rx="42.232651"
       ry="36.639618"
       x="0"
       y="0"
       style="fill:#003399;fill-opacity:1"
       id="rect1363" />
    <rect
       width="394"
       height="500"
       rx="35.564335"
       ry="30.854416"
       x="6"
       y="6"
       style="fill:#ffffff;fill-opacity:1;stroke:none"
       id="rect1365" />
    <rect
       width="370"
       height="476"
       rx="22.227709"
       ry="19.28401"
       x="18.509384"
       y="18"
       style="fill:#003399;fill-opacity:1;stroke:none"
       id="rect4005" />
  </g>
  <path
     d="m 96.786365,487.30578 -21.50725,0 0,-296.6208 -15.2343,0 25.98793,-43.01449 24.195655,43.01449 -14.338175,0 0,202.52659 147.862335,-112.01692 c 8.31163,-6.21135 12.82956,-10.79473 12.5459,-19.71498 l 0,-70.79469 -15.2343,0 25.09179,-43.01449 25.98792,43.01449 -15.2343,0 0,69.00242 c -0.33814,17.51953 -7.89175,32.14869 -27.7802,44.80677 l -112.91305,85.13286 c -18.20075,16.14381 -40.566775,29.59244 -39.429955,58.24879 l 0,39.42996 z"
     style="fill:#ffffff;fill-opacity:1;fill-rule:evenodd;stroke:none"
     id="path1983"
     inkscape:connector-curvature="0" />
  <path
     d="m 132.18371,166.04126 7.61715,0 0,25.98792 -7.61715,0 0,-25.98792 z"
     style="fill:#ffffff;fill-opacity:1;fill-rule:evenodd;stroke:none"
     id="path1985"
     inkscape:connector-curvature="0" />
  <path
     d="m 171.16559,166.04126 7.61715,0 0,25.98792 -7.61715,0 0,-25.98792 z"
     style="fill:#ffffff;fill-opacity:1;fill-rule:evenodd;stroke:none"
     id="path1987"
     inkscape:connector-curvature="0" />
  <path
     d="m 210.14748,166.04126 7.61715,0 0,25.98792 -7.61715,0 0,-25.98792 z"
     style="fill:#ffffff;fill-opacity:1;fill-rule:evenodd;stroke:none"
     id="path1989"
     inkscape:connector-curvature="0" />
  <path
     d="m 132.18371,216.67291 7.61715,0 0,25.98792 -7.61715,0 0,-25.98792 z"
     style="fill:#ffffff;fill-opacity:1;fill-rule:evenodd;stroke:none"
     id="path1991"
     inkscape:connector-curvature="0" />
  <path
     d="m 171.16559,216.67291 7.61715,0 0,25.98792 -7.61715,0 0,-25.98792 z"
     style="fill:#ffffff;fill-opacity:1;fill-rule:evenodd;stroke:none"
     id="path1993"
     inkscape:connector-curvature="0" />
  <path
     d="m 210.14748,216.67291 7.61715,0 0,25.98792 -7.61715,0 0,-25.98792 z"
     style="fill:#ffffff;fill-opacity:1;fill-rule:evenodd;stroke:none"
     id="path1995"
     inkscape:connector-curvature="0" />
  <g
     transform="translate(580.4356,8.871287)"
     id="g2939">
    <path
       d="m 390.42439,244.34138 a 140.71134,122.87468 0 1 1 -281.42267,0 140.71134,122.87468 0 1 1 281.42267,0 z"
       transform="matrix(0.413808,0,0,0.473876,-509.282,-31.69153)"
       style="fill:#ffffff;fill-opacity:1;fill-rule:nonzero;stroke:none"
       id="path8679"
       inkscape:connector-curvature="0" />
    <path
       d="m -405.94875,28.420416 c -30.73155,0 -55.67207,24.946701 -55.67207,55.679075 0,30.732369 24.94053,55.672079 55.67207,55.672079 30.73155,0 55.67207,-24.93971 55.67208,-55.672079 0,-30.732372 -24.94053,-55.679075 -55.67208,-55.679075 z m 0,10.889472 c 24.72387,0 44.7896,20.065738 44.7896,44.789603 0,24.723869 -20.06573,44.789599 -44.7896,44.789599 -24.72387,0 -44.7896,-20.06573 -44.7896,-44.789599 0,-24.723865 20.06574,-44.789603 44.7896,-44.789603 z"
       style="fill:#d40000;fill-opacity:1;fill-rule:nonzero;stroke:none"
       id="path3063"
       inkscape:connector-curvature="0" />
  </g>
  <path
     d="m 138.15452,92.967275 72.66477,0"
     style="fill:none;stroke:#000000;stroke-width:8.37025356;stroke-linecap:round;stroke-linejoin:miter;stroke-miterlimit:4;stroke-opacity:1;stroke-dasharray:none"
     id="path2943"
     inkscape:connector-curvature="0" />
  <path
     d="m 139.13825,81.413679 0,-10.021485 3.24707,0 c 1.23047,1e-5 2.03255,0.05014 2.40625,0.150391 0.57422,0.1504 1.05501,0.477386 1.44239,0.980957 0.38736,0.503589 0.58104,1.154142 0.58105,1.95166 -1e-5,0.615241 -0.11166,1.132493 -0.33496,1.551758 -0.22331,0.419276 -0.507,0.74854 -0.85107,0.987793 -0.34409,0.239262 -0.69386,0.397628 -1.04932,0.475098 -0.48308,0.09571 -1.18262,0.143558 -2.09863,0.143554 l -1.31934,0 0,3.780274 -2.02344,0 z m 2.02344,-8.326172 0,2.84375 1.10742,0 c 0.79753,5e-6 1.33073,-0.0524 1.59961,-0.157227 0.26888,-0.104812 0.47965,-0.268874 0.63233,-0.492187 0.15266,-0.223301 0.22899,-0.483067 0.229,-0.779297 -1e-5,-0.364576 -0.1071,-0.665357 -0.32129,-0.902344 -0.2142,-0.236971 -0.48535,-0.385083 -0.81347,-0.444336 -0.24155,-0.04556 -0.7269,-0.06835 -1.45606,-0.06836 l -0.97754,0 z m 14.63574,4.59375 c 0,-0.638017 0.15723,-1.255529 0.47168,-1.852539 0.31446,-0.596999 0.75993,-1.052728 1.33643,-1.367188 0.57649,-0.314446 1.22021,-0.471672 1.93115,-0.471679 1.0983,7e-6 1.99837,0.356615 2.7002,1.069824 0.70181,0.713222 1.05272,1.614425 1.05273,2.703613 -1e-5,1.09831 -0.35434,2.008628 -1.06299,2.730957 -0.70866,0.722331 -1.60075,1.083496 -2.67627,1.083496 -0.66536,0 -1.29997,-0.15039 -1.9038,-0.451172 -0.60385,-0.30078 -1.06299,-0.741698 -1.37745,-1.322754 -0.31445,-0.581052 -0.47168,-1.288571 -0.47168,-2.122558 l 0,0 z m 1.96875,0.102539 c 0,0.720055 0.1709,1.271487 0.5127,1.654297 0.34179,0.382814 0.76334,0.57422 1.26465,0.574218 0.5013,2e-6 0.92171,-0.191404 1.26123,-0.574218 0.33951,-0.38281 0.50927,-0.938799 0.50928,-1.667969 -1e-5,-0.710933 -0.16977,-1.257808 -0.50928,-1.640625 -0.33952,-0.382807 -0.75993,-0.574213 -1.26123,-0.574219 -0.50131,6e-6 -0.92286,0.191412 -1.26465,0.574219 -0.3418,0.382817 -0.5127,0.934249 -0.5127,1.654297 l 0,0 z m 14.71778,3.629883 0,-10.021485 1.9209,0 0,3.609375 c 0.59244,-0.674472 1.29426,-1.011711 2.10546,-1.011718 0.88411,7e-6 1.61556,0.320156 2.19434,0.960449 0.57877,0.640305 0.86816,1.559738 0.86816,2.758301 0,1.239585 -0.29509,2.194337 -0.88525,2.864257 -0.59017,0.669922 -1.30681,1.004883 -2.1499,1.004883 -0.41472,0 -0.82374,-0.103678 -1.22705,-0.311035 -0.40333,-0.207356 -0.75082,-0.513834 -1.04248,-0.919434 l 0,1.066407 -1.78418,0 z m 1.90722,-3.78711 c 0,0.751956 0.11849,1.307945 0.35547,1.667969 0.33268,0.510418 0.77474,0.765626 1.32617,0.765625 0.42383,10e-7 0.78499,-0.181151 1.0835,-0.543457 0.2985,-0.362302 0.44775,-0.933103 0.44775,-1.712402 0,-0.829423 -0.15039,-1.427567 -0.45117,-1.794434 -0.30078,-0.366856 -0.68587,-0.550287 -1.15527,-0.550293 -0.46029,6e-6 -0.8431,0.17888 -1.14844,0.536621 -0.30534,0.357753 -0.45801,0.901209 -0.45801,1.630371 l 0,0 z m 14.05469,0.05469 c 0,-0.638017 0.15723,-1.255529 0.47168,-1.852539 0.31445,-0.596999 0.75993,-1.052728 1.33643,-1.367188 0.57649,-0.314446 1.22021,-0.471672 1.93115,-0.471679 1.0983,7e-6 1.99837,0.356615 2.70019,1.069824 0.70182,0.713222 1.05273,1.614425 1.05274,2.703613 -1e-5,1.09831 -0.35434,2.008628 -1.06299,2.730957 -0.70866,0.722331 -1.60075,1.083496 -2.67627,1.083496 -0.66537,0 -1.29997,-0.15039 -1.90381,-0.451172 -0.60384,-0.30078 -1.06299,-0.741698 -1.37744,-1.322754 -0.31445,-0.581052 -0.47168,-1.288571 -0.47168,-2.122558 l 0,0 z m 1.96875,0.102539 c 0,0.720055 0.1709,1.271487 0.5127,1.654297 0.34179,0.382814 0.76334,0.57422 1.26465,0.574218 0.50129,2e-6 0.9217,-0.191404 1.26123,-0.574218 0.33951,-0.38281 0.50927,-0.938799 0.50927,-1.667969 0,-0.710933 -0.16976,-1.257808 -0.50927,-1.640625 -0.33953,-0.382807 -0.75994,-0.574213 -1.26123,-0.574219 -0.50131,6e-6 -0.92286,0.191412 -1.26465,0.574219 -0.3418,0.382817 -0.5127,0.934249 -0.5127,1.654297 l 0,0 z m 0.79981,-4.518555 0.94336,-2.043945 2.15332,0 -1.87989,2.043945 -1.21679,0 z m 15.83886,8.148438 -1.92089,0 0,-7.259766 1.78417,0 0,1.032227 c 0.30534,-0.487624 0.57992,-0.808913 0.82374,-0.963868 0.24381,-0.15494 0.52066,-0.232414 0.83056,-0.232421 0.4375,7e-6 0.85905,0.120775 1.26465,0.362304 l -0.59473,1.674805 c -0.32357,-0.20963 -0.62435,-0.314447 -0.90234,-0.314453 -0.26888,6e-6 -0.49675,0.07406 -0.68359,0.222168 -0.18686,0.148117 -0.33383,0.415858 -0.44092,0.803222 -0.1071,0.387375 -0.16065,1.198572 -0.16065,2.433594 l 0,2.242188 z"
     id="flowRoot3830"
     style="fill:#000000;fill-opacity:1;stroke:none"
     inkscape:connector-curvature="0" />
  <path
     d="m 142.59375,108.09711 c 0,-0.63802 0.15722,-1.25553 0.47168,-1.85254 0.31445,-0.597 0.75992,-1.05273 1.33642,-1.36719 0.5765,-0.31445 1.22021,-0.47167 1.93115,-0.47168 1.09831,1e-5 1.99837,0.35662 2.7002,1.06982 0.70182,0.71323 1.05273,1.61443 1.05273,2.70362 0,1.09831 -0.35433,2.00863 -1.06298,2.73095 -0.70867,0.72234 -1.60076,1.0835 -2.67627,1.0835 -0.66537,0 -1.29997,-0.15039 -1.90381,-0.45117 -0.60384,-0.30078 -1.06299,-0.7417 -1.37744,-1.32276 -0.31446,-0.58105 -0.47168,-1.28857 -0.47168,-2.12255 l 0,0 z m 1.96875,0.10254 c -1e-5,0.72005 0.17089,1.27148 0.51269,1.65429 0.3418,0.38282 0.76334,0.57422 1.26465,0.57422 0.5013,0 0.92171,-0.1914 1.26123,-0.57422 0.33951,-0.38281 0.50927,-0.9388 0.50928,-1.66797 -1e-5,-0.71093 -0.16977,-1.2578 -0.50928,-1.64062 -0.33952,-0.38281 -0.75993,-0.57421 -1.26123,-0.57422 -0.50131,1e-5 -0.92285,0.19141 -1.26465,0.57422 -0.3418,0.38282 -0.5127,0.93425 -0.51269,1.6543 l 0,0 z m 14.74511,-3.62989 1.79102,0 0,1.06641 c 0.23242,-0.36458 0.54687,-0.6608 0.94336,-0.88867 0.39648,-0.22786 0.83626,-0.34179 1.31933,-0.3418 0.8431,1e-5 1.55859,0.33041 2.14649,0.99121 0.58788,0.66081 0.88183,1.58139 0.88184,2.76172 -10e-6,1.21224 -0.29624,2.15446 -0.88868,2.82666 -0.59245,0.6722 -1.31022,1.0083 -2.15332,1.0083 -0.40104,0 -0.76449,-0.0798 -1.09033,-0.23926 -0.32585,-0.1595 -0.66878,-0.43294 -1.02881,-0.82031 l 0,3.65723 -1.9209,0 0,-10.02149 z m 1.90039,3.50684 c 0,0.81576 0.16179,1.41846 0.48536,1.8081 0.32356,0.38965 0.71777,0.58448 1.18261,0.58448 0.44661,0 0.81803,-0.17888 1.11426,-0.53662 0.29622,-0.35775 0.44433,-0.9445 0.44434,-1.76026 -1e-5,-0.76106 -0.15268,-1.32617 -0.45801,-1.69531 -0.30534,-0.36914 -0.6836,-0.55371 -1.13477,-0.55371 -0.4694,0 -0.85905,0.18116 -1.16894,0.54346 -0.3099,0.3623 -0.46485,0.89893 -0.46485,1.60986 l 0,0 z m 14.47852,-1.16895 0,-5.09961 1.9209,0 0,3.46582 0.93652,-0.79296 0,1.29882 -0.93652,0.79297 0,5.25684 -1.9209,0 0,-3.62305 -0.93652,0.79297 0,-1.29883 0.93652,-0.79297 z m 13.08398,-0.12304 -1.74316,-0.31446 c 0.19596,-0.70181 0.5332,-1.22134 1.01172,-1.55859 0.47851,-0.33723 1.18945,-0.50585 2.13281,-0.50586 0.85677,1e-5 1.49479,0.10141 1.91406,0.3042 0.41927,0.20281 0.71435,0.46029 0.88526,0.77246 0.17089,0.31218 0.25634,0.88526 0.25635,1.71924 l -0.0205,2.24219 c -1e-5,0.63802 0.0307,1.10856 0.0923,1.41162 0.0615,0.30306 0.17659,0.62776 0.34522,0.97412 l -1.90039,0 c -0.0501,-0.12761 -0.11166,-0.31673 -0.18457,-0.56738 -0.0319,-0.11394 -0.0547,-0.18913 -0.0684,-0.22559 -0.32813,0.31901 -0.67904,0.55827 -1.05274,0.71777 -0.3737,0.15951 -0.77246,0.23926 -1.19629,0.23926 -0.74739,0 -1.33642,-0.2028 -1.76709,-0.6084 -0.43066,-0.4056 -0.64599,-0.91829 -0.64599,-1.53808 0,-0.41016 0.098,-0.77588 0.29394,-1.09717 0.19597,-0.32129 0.47054,-0.56738 0.82373,-0.73828 0.35319,-0.1709 0.86247,-0.32015 1.52784,-0.44776 0.89778,-0.16861 1.51985,-0.32584 1.86621,-0.47168 l 0,-0.1914 c -1e-5,-0.36914 -0.0911,-0.63232 -0.27344,-0.78955 -0.1823,-0.15722 -0.52637,-0.23584 -1.03223,-0.23584 -0.3418,0 -0.6084,0.0672 -0.7998,0.20166 -0.19141,0.13444 -0.34636,0.37028 -0.46485,0.70752 l 0,0 z m 2.57032,1.55859 c -0.2461,0.082 -0.63575,0.18002 -1.16895,0.29395 -0.5332,0.11393 -0.88184,0.22558 -1.0459,0.33496 -0.25065,0.17773 -0.37598,0.40332 -0.37597,0.67675 -1e-5,0.26889 0.10025,0.50131 0.30078,0.69727 0.20052,0.19596 0.45572,0.29395 0.76562,0.29395 0.34635,0 0.67676,-0.11394 0.99121,-0.3418 0.23242,-0.17318 0.38509,-0.38509 0.45801,-0.63574 0.0501,-0.16406 0.0752,-0.47624 0.0752,-0.93653 l 0,-0.38281 z m 14.88183,-3.77344 0,1.53125 -1.3125,0 0,2.92578 c 0,0.59245 0.0125,0.93767 0.0376,1.03565 0.0251,0.098 0.082,0.17887 0.1709,0.24267 0.0889,0.0638 0.1971,0.0957 0.32471,0.0957 0.17773,10e-6 0.43521,-0.0615 0.77246,-0.18457 l 0.16406,1.49024 c -0.44662,0.1914 -0.95248,0.28711 -1.51758,0.28711 -0.34636,0 -0.65853,-0.0581 -0.93652,-0.17432 -0.278,-0.11621 -0.48194,-0.2666 -0.61182,-0.45117 -0.12988,-0.18457 -0.21989,-0.43408 -0.27002,-0.74854 -0.041,-0.2233 -0.0615,-0.67447 -0.0615,-1.35351 l 0,-3.16504 -0.88184,0 0,-1.53125 0.88184,0 0,-1.44238 1.92773,-1.1211 0,2.56348 1.3125,0 z"
     id="flowRoot3838"
     style="fill:#000000;fill-opacity:1;stroke:none"
     inkscape:connector-curvature="0" />
</svg>
