<?xml version="1.0" encoding="UTF-8" standalone="no"?>
<!-- Created with Inkscape (http://www.inkscape.org/) -->

<svg
   xmlns:dc="http://purl.org/dc/elements/1.1/"
   xmlns:cc="http://creativecommons.org/ns#"
   xmlns:rdf="http://www.w3.org/1999/02/22-rdf-syntax-ns#"
   xmlns:svg="http://www.w3.org/2000/svg"
   xmlns="http://www.w3.org/2000/svg"
   xmlns:sodipodi="http://sodipodi.sourceforge.net/DTD/sodipodi-0.dtd"
   xmlns:inkscape="http://www.inkscape.org/namespaces/inkscape"
   version="1.0"
   width="406"
   height="512"
   id="svg10889"
   inkscape:version="0.48.2 r9819"
   sodipodi:docname="Aa.svg">
  <metadata
     id="metadata17">
    <rdf:RDF>
      <cc:Work
         rdf:about="">
        <dc:format>image/svg+xml</dc:format>
        <dc:type
           rdf:resource="http://purl.org/dc/dcmitype/StillImage" />
      </cc:Work>
    </rdf:RDF>
  </metadata>
  <sodipodi:namedview
     pagecolor="#ffffff"
     bordercolor="#666666"
     borderopacity="1"
     objecttolerance="10"
     gridtolerance="10"
     guidetolerance="10"
     inkscape:pageopacity="0"
     inkscape:pageshadow="2"
     inkscape:window-width="1280"
     inkscape:window-height="1004"
     id="namedview15"
     showgrid="false"
     fit-margin-top="0"
     fit-margin-left="0"
     fit-margin-right="0"
     fit-margin-bottom="0"
     inkscape:zoom="1.3037281"
     inkscape:cx="197.07251"
     inkscape:cy="288.44591"
     inkscape:window-x="-8"
     inkscape:window-y="-8"
     inkscape:window-maximized="1"
     inkscape:current-layer="svg10889" />
  <defs
     id="defs10904">
    <pattern
       patternUnits="userSpaceOnUse"
       width="370"
       height="476"
       patternTransform="translate(18.50938,18)"
       id="pattern4002">
      <rect
         ry="20"
         rx="20"
         y="0"
         x="0"
         height="476"
         width="370"
         id="rect2240"
         style="fill:#00e5ff;fill-opacity:1" />
    </pattern>
  </defs>
  <desc
     id="desc10891">wmf2svg</desc>
  <rect
     width="406"
     height="512"
     rx="38"
     ry="38"
     x="0"
     y="0"
     style="fill:#003399;fill-opacity:1;stroke:none"
     id="rect1363" />
  <rect
     width="394"
     height="500"
     rx="32"
     ry="32"
     x="6"
     y="6"
     style="fill:#ffffff;fill-opacity:1;stroke:none"
     id="rect1365" />
  <rect
     width="370"
     height="476"
     rx="20"
     ry="20"
     x="18.509384"
     y="18"
     style="fill:#003399;fill-opacity:1;stroke:none"
     id="rect4005" />
  <path
     d="m 144.45563,476.05169 -29.72031,0 0,-375.55673 -27.018473,0 43.229553,-63.493396 39.17678,63.493396 -25.66755,0 0,258.02639 118.88127,-118.88127 c 22.05648,-21.75017 30.22945,-31.53621 29.72031,-63.49341 l 0,-75.65171 -25.66754,0 40.5277,-63.493396 44.58048,63.493396 -25.66755,0 0,77.00264 c 0.75973,39.94325 -19.09476,66.90994 -51.33509,97.26649 l -97.26649,95.91557 c -17.88746,17.36174 -33.8378,37.32395 -33.77309,64.84432 l 0,40.52771 z"
     style="fill:#ffffff;fill-opacity:1;fill-rule:evenodd;stroke:none"
     id="path2104"
     inkscape:connector-curvature="0" />
  <path
     d="m 195.8257,226.38107 a 67.82255,67.82255 0 0 1 -135.6451,0 67.82255,67.82255 0 1 1 135.6451,0 z"
     style="fill:#003399;fill-opacity:1;fill-rule:evenodd;stroke:#ffffff;stroke-width:6.0999999;stroke-linecap:round;stroke-linejoin:miter;stroke-miterlimit:4;stroke-opacity:1;stroke-dasharray:none;stroke-dashoffset:0"
     id="path2991"
     inkscape:connector-curvature="0" />
  <path
     d="m 84.862387,239.90589 11.170185,-1.34968 c 0.355904,2.8357 1.314128,5.00335 2.874683,6.50298 1.560525,1.49965 3.449595,2.24947 5.667225,2.24946 2.38185,1e-5 4.38729,-0.89978 6.01629,-2.69935 1.62896,-1.79956 2.44345,-4.22624 2.44349,-7.28006 -4e-5,-2.89019 -0.78031,-5.18055 -2.34082,-6.87107 -1.56057,-1.69049 -3.46332,-2.53573 -5.7083,-2.53576 -1.47842,3e-5 -3.2443,0.28633 -5.297613,0.85889 l 1.273073,-9.36593 c 3.12106,0.0818 5.50293,-0.59301 7.14563,-2.02452 1.64264,-1.43142 2.46398,-3.33324 2.46401,-5.70543 -3e-5,-2.01766 -0.60235,-3.62636 -1.80694,-4.82611 -1.20465,-1.19967 -2.80626,-1.79952 -4.80482,-1.79958 -1.97123,6e-5 -3.65497,0.68171 -5.051225,2.04497 -1.396293,1.36335 -2.245005,3.35379 -2.546148,5.97129 l -10.636318,-1.79957 c 0.739201,-3.62635 1.854853,-6.52337 3.346956,-8.69109 1.49208,-2.1676 3.572801,-3.87173 6.242162,-5.1124 2.669327,-1.24055 5.660353,-1.86086 8.973113,-1.86091 5.6672,5e-5 10.21192,1.79963 13.63419,5.3987 2.81988,2.94479 4.22984,6.27126 4.22989,9.97941 -5e-5,5.2624 -2.88841,9.46139 -8.66511,12.59697 3.44958,0.7362 6.2079,2.38581 8.27497,4.9488 2.06699,2.56305 3.1005,5.65775 3.10055,9.28413 -5e-5,5.26238 -1.93018,9.74765 -5.79043,13.45585 -3.86032,3.7082 -8.66514,5.56229 -14.41447,5.56229 -5.448212,0 -9.96557,-1.56099 -13.552061,-4.68296 -3.586514,-3.12197 -5.667223,-7.20507 -6.242162,-12.24932 l 0,0 z m 66.733653,-44.29387 c 5.83146,5e-5 10.38988,2.07228 13.67526,6.21668 3.915,4.90795 5.87252,13.0469 5.87256,24.41684 -4e-5,11.34274 -1.97125,19.49531 -5.91363,24.45775 -3.258,4.08991 -7.80273,6.13488 -13.63419,6.13488 -5.85889,0 -10.58158,-2.24264 -14.16807,-6.72793 -3.58652,-4.48527 -5.37976,-12.48106 -5.37976,-23.9874 0,-11.28815 1.97121,-19.41344 5.91362,-24.37594 3.25796,-4.08987 7.8027,-6.13483 13.63421,-6.13488 l 0,0 z m 0,9.52952 c -1.3963,5e-5 -2.642,0.44312 -3.73709,1.32922 -1.09514,0.88621 -1.94385,2.47446 -2.54615,4.76477 -0.79397,2.97204 -1.19095,7.97538 -1.19093,15.01001 -2e-5,7.0347 0.35589,11.86762 1.06773,14.49878 0.71181,2.6312 1.60844,4.38305 2.68989,5.25555 1.0814,0.87253 2.32025,1.30879 3.71655,1.30878 1.39624,1e-5 2.64193,-0.44307 3.73708,-1.32923 1.09508,-0.88614 1.9438,-2.47439 2.54614,-4.76476 0.79394,-2.94473 1.19091,-7.93442 1.19094,-14.96912 -3e-5,-7.03463 -0.35594,-11.86755 -1.06774,-14.49878 -0.71185,-2.63114 -1.60847,-4.38979 -2.68987,-5.276 -1.08146,-0.8861 -2.32031,-1.32917 -3.71655,-1.32922 l 0,0 z"
     style="font-size:72px;fill:#ffffff;fill-opacity:1"
     id="flowRoot3878"
     inkscape:connector-curvature="0" />
  <rect
     width="7.1904693"
     height="36.086697"
     x="214.0817"
     y="62.901371"
     style="fill:#ffffff;fill-opacity:1;fill-rule:evenodd;stroke:#ffffff;stroke-width:4.40220165;stroke-linecap:round;stroke-linejoin:miter;stroke-miterlimit:4;stroke-opacity:1;stroke-dasharray:none;stroke-dashoffset:0"
     id="rect3887" />
  <rect
     width="7.1904693"
     height="36.086697"
     x="214.0817"
     y="144.09738"
     style="fill:#ffffff;fill-opacity:1;fill-rule:evenodd;stroke:#ffffff;stroke-width:4.40220165;stroke-linecap:round;stroke-linejoin:miter;stroke-miterlimit:4;stroke-opacity:1;stroke-dasharray:none;stroke-dashoffset:0"
     id="rect3889" />
</svg>
