<?xml version="1.0" encoding="UTF-8" standalone="no"?>
<!-- Created with Inkscape (http://www.inkscape.org/) -->

<svg
   xmlns:dc="http://purl.org/dc/elements/1.1/"
   xmlns:cc="http://creativecommons.org/ns#"
   xmlns:rdf="http://www.w3.org/1999/02/22-rdf-syntax-ns#"
   xmlns:svg="http://www.w3.org/2000/svg"
   xmlns="http://www.w3.org/2000/svg"
   xmlns:sodipodi="http://sodipodi.sourceforge.net/DTD/sodipodi-0.dtd"
   xmlns:inkscape="http://www.inkscape.org/namespaces/inkscape"
   version="1.0"
   width="500.00015"
   height="499.99988"
   id="svg2"
   inkscape:version="0.48.2 r9819"
   sodipodi:docname="AJAX.svg">
  <metadata
     id="metadata23">
    <rdf:RDF>
      <cc:Work
         rdf:about="">
        <dc:format>image/svg+xml</dc:format>
        <dc:type
           rdf:resource="http://purl.org/dc/dcmitype/StillImage" />
      </cc:Work>
    </rdf:RDF>
  </metadata>
  <sodipodi:namedview
     pagecolor="#ffffff"
     bordercolor="#666666"
     borderopacity="1"
     objecttolerance="10"
     gridtolerance="10"
     guidetolerance="10"
     inkscape:pageopacity="0"
     inkscape:pageshadow="2"
     inkscape:window-width="1280"
     inkscape:window-height="1004"
     id="namedview21"
     showgrid="false"
     fit-margin-top="0"
     fit-margin-left="0"
     fit-margin-right="0"
     fit-margin-bottom="0"
     inkscape:zoom="0.94400023"
     inkscape:cx="176.94461"
     inkscape:cy="225.04307"
     inkscape:window-x="-8"
     inkscape:window-y="-8"
     inkscape:window-maximized="1"
     inkscape:current-layer="svg2" />
  <defs
     id="defs4">
    <pattern
       patternUnits="userSpaceOnUse"
       width="370"
       height="476"
       patternTransform="translate(18.50938,18)"
       id="pattern4002">
      <rect
         ry="20"
         rx="20"
         y="0"
         x="0"
         height="476"
         width="370"
         id="rect2240"
         style="fill:#00e5ff;fill-opacity:1" />
    </pattern>
  </defs>
  <g
     transform="translate(313.13768,-117.98563)"
     id="layer1">
    <g
       id="g3791">
      <g
         transform="matrix(1.25,0,0,1.25,-655.9948,-269.6101)"
         id="g3776">
        <g
           transform="translate(218.9449,96.7782)"
           id="g5871">
          <g
             transform="translate(334.1429,296.3621)"
             id="g4672">
            <g
               transform="matrix(0.985222,0,0,0.976563,-278.8021,-85.06397)"
               id="g4679">
              <g
                 transform="matrix(1,0,0,0.995024,0,2.04826)"
                 id="g5881">
                <path
                   d="m 38,0 330,0 c 21.052,0 38,16.948 38,38 l 0,335.64805 c 0,21.052 -16.948,38 -38,38 l -330,0 c -21.052,0 -38,-16.948 -38,-38 L 0,38 C 0,16.948 16.948,0 38,0 z"
                   style="fill:#003399;fill-opacity:1;stroke:none"
                   id="rect1363"
                   inkscape:connector-curvature="0" />
                <path
                   d="m 38,6 330,0 c 17.728,0 32,14.272 32,32 l 0,333.60005 c 0,17.728 -14.272,32 -32,32 l -330,0 c -17.728,0 -32,-14.272 -32,-32 L 6,38 C 6,20.272 20.272,6 38,6 z"
                   style="fill:#ffffff;fill-opacity:1;stroke:none"
                   id="rect1365"
                   inkscape:connector-curvature="0" />
                <path
                   d="m 38.509384,18 329.999996,0 c 11.08,0 20,8.92 20,20 l 0,333.60005 c 0,11.08 -8.92,20 -20,20 l -329.999996,0 c -11.08,0 -20,-8.92 -20,-20 l 0,-333.60005 c 0,-11.08 8.92,-20 20,-20 z"
                   style="fill:#003399;fill-opacity:1;stroke:none"
                   id="rect4005"
                   inkscape:connector-curvature="0" />
              </g>
            </g>
          </g>
        </g>
      </g>
      <g
         transform="matrix(0.673979,0,0,0.673979,654.7392,301.9186)"
         id="g3785">
        <path
           d="m -726.165,347.65696 -676.0618,-2e-5 338.0309,-585.48656 338.0309,585.48658 z"
           style="fill:#ffffff;fill-opacity:1;fill-rule:nonzero;stroke:none"
           id="path3725"
           inkscape:connector-curvature="0" />
        <g
           transform="translate(220.7229,-33.85783)"
           id="g3719">
          <path
             d="m -1282.2982,-97.958216 c -15.9614,0 -28.9062,12.976084 -28.9062,28.937504 0,15.961421 12.9447,28.90625 28.9062,28.90625 15.9614,0 28.9062,-12.944839 28.9062,-28.90625 0,-15.96142 -12.9448,-28.937494 -28.9062,-28.937504 z m 0.9062,59.593754 -51.4999,98.999996 -52.5313,49.499996 14.1563,37.375 78.7812,-82.812496 10.0937,86.874996 -49.4999,70.6875 -39.375,109.09375 -51.5313,5.0625 81.8125,27.28125 35.375,-123.25 51.5,-50.5 70.7186,139.40625 -48.5,34.34375 56.5938,0 45.4375,-26.28125 -92.9375,-181.8125 -8.0625,-38.375 0,-79.812496 35.3437,37.375 0,99.999996 28.2813,-15.15625 0,-98.999996 -60.5938,-68.6874996 -53.5624,-30.3124964 z"
             style="fill:#000000;fill-rule:evenodd;stroke:none"
             id="path1933"
             inkscape:connector-curvature="0" />
          <path
             d="m -1537.1917,275.48256 -14.6563,25.25 177.2813,0 0,-25.25 -162.625,0 z m 230.0312,0 0,25.25 87.125,0 0,-25.25 -87.125,0 z m 163.6563,0 12,25.25 117.9062,0 -14,-25.25 -115.9062,0 z"
             style="fill:#000000;fill-rule:evenodd;stroke:none;stroke-width:1px;stroke-linecap:butt;stroke-linejoin:miter;stroke-opacity:1"
             id="path3712"
             inkscape:connector-curvature="0" />
        </g>
      </g>
    </g>
  </g>
</svg>
