<?xml version="1.0" encoding="UTF-8" standalone="no"?>
<!-- Created with Inkscape (http://www.inkscape.org/) -->

<svg
   xmlns:dc="http://purl.org/dc/elements/1.1/"
   xmlns:cc="http://creativecommons.org/ns#"
   xmlns:rdf="http://www.w3.org/1999/02/22-rdf-syntax-ns#"
   xmlns:svg="http://www.w3.org/2000/svg"
   xmlns="http://www.w3.org/2000/svg"
   xmlns:sodipodi="http://sodipodi.sourceforge.net/DTD/sodipodi-0.dtd"
   xmlns:inkscape="http://www.inkscape.org/namespaces/inkscape"
   width="497.1875"
   height="497.21875"
   id="svg4674"
   sodipodi:version="0.32"
   inkscape:version="0.48.2 r9819"
   sodipodi:docname="Aa.svg"
   version="1.0">
  <defs
     id="defs4676" />
  <sodipodi:namedview
     id="base"
     pagecolor="#ffffff"
     bordercolor="#666666"
     borderopacity="1.0"
     gridtolerance="10000"
     guidetolerance="10"
     objecttolerance="10"
     inkscape:pageopacity="0.0"
     inkscape:pageshadow="2"
     inkscape:zoom="0.98994949"
     inkscape:cx="198.1545"
     inkscape:cy="201.35729"
     inkscape:document-units="px"
     inkscape:current-layer="layer1"
     showguides="true"
     inkscape:guide-bbox="true"
     inkscape:window-width="1280"
     inkscape:window-height="1004"
     inkscape:window-x="-8"
     inkscape:window-y="-8"
     showgrid="false"
     fit-margin-top="0"
     fit-margin-left="0"
     fit-margin-right="0"
     fit-margin-bottom="0"
     inkscape:window-maximized="1" />
  <metadata
     id="metadata4679">
    <rdf:RDF>
      <cc:Work
         rdf:about="">
        <dc:format>image/svg+xml</dc:format>
        <dc:type
           rdf:resource="http://purl.org/dc/dcmitype/StillImage" />
      </cc:Work>
    </rdf:RDF>
  </metadata>
  <g
     inkscape:label="Layer 1"
     inkscape:groupmode="layer"
     id="layer1"
     transform="translate(-90.71414,-185.14332)">
    <g
       id="g15137">
      <g
         inkscape:label="Layer 1"
         id="g4757"
         transform="translate(89.30789,183.7527)">
        <path
           sodipodi:type="arc"
           style="fill:#ffffff;fill-opacity:1;fill-rule:nonzero;stroke:none"
           id="path8679"
           sodipodi:cx="249.71306"
           sodipodi:cy="244.34138"
           sodipodi:rx="140.71133"
           sodipodi:ry="122.87468"
           d="m 390.42439,244.34138 c 0,67.86182 -62.99861,122.87468 -140.71133,122.87468 -77.71273,0 -140.71134,-55.01286 -140.71134,-122.87468 0,-67.86181 62.99861,-122.87467 140.71134,-122.87467 77.71272,0 140.71133,55.01286 140.71133,122.87467 z"
           transform="matrix(1.776687,0,0,2.034593,-192.2554,-248.5258)" />
        <path
           style="fill:#d40000;fill-opacity:1;fill-rule:nonzero;stroke:none"
           d="m 250,1.390623 c -137.22627,0 -248.59375,111.395057 -248.59375,248.625007 0,137.22993 111.36749,248.59376 248.59375,248.59375 137.22627,0 248.59374,-111.36382 248.59375,-248.59375 C 498.59375,112.78569 387.22627,1.390623 250,1.390623 z m 0,48.625 c 110.40002,1e-6 200,89.599987 200,200.000007 -10e-6,110.40003 -89.59997,200 -200,200 -110.40004,-10e-6 -200,-89.59998 -200,-200 C 50,139.61561 139.59997,50.015623 250,50.015623 z"
           id="path3063"
           inkscape:connector-curvature="0" />
      </g>
      <path
         transform="matrix(0.519416,0,0,0.55478,200.8434,254.7134)"
         d="m 448.57143,162.36218 c 0,44.18278 -80.26895,80 -179.28572,80 -99.01677,0 -179.285725,-35.81722 -179.285725,-80 0,-44.18278 80.268955,-79.999997 179.285725,-79.999997 99.01677,0 179.28572,35.817217 179.28572,79.999997 z"
         sodipodi:ry="80"
         sodipodi:rx="179.28572"
         sodipodi:cy="162.36218"
         sodipodi:cx="269.28571"
         id="path4761"
         style="fill:#ff9700;fill-opacity:1;fill-rule:nonzero;stroke:none"
         sodipodi:type="arc" />
      <g
         transform="matrix(1.100468,0,0,1.116587,-633.9859,669.2436)"
         id="g4841">
        <path
           style="fill:#000000;fill-opacity:1;fill-rule:nonzero;stroke:none"
           d="m 789.71094,-245.05421 0,74.68935 22.7164,0 0,-31.95586 64.7024,0 c 1.7759,2.59548 4.782,4.30478 8.208,4.30477 3.4261,0 6.4482,-1.70929 8.2241,-4.30477 l 65.4398,0 0,31.95586 22.7164,0 0,-74.68935 -22.7164,0 0,31.95585 -65.4398,0 c -1.7759,-2.59548 -4.798,-4.30477 -8.2241,-4.30477 -3.426,0 -6.4321,1.70929 -8.208,4.30477 l -64.7024,0 0,-31.95585 -22.7164,0 z"
           id="rect3746"
           inkscape:connector-curvature="0" />
        <path
           transform="matrix(1.100872,0,0,1.100872,779.3621,-545.6379)"
           d="m 108.92857,306.96423 c 0,6.80494 -5.51649,12.32143 -12.32143,12.32143 -6.804937,0 -12.321429,-5.51649 -12.321429,-12.32143 0,-6.80493 5.516492,-12.32142 12.321429,-12.32142 6.80494,0 12.32143,5.51649 12.32143,12.32142 z"
           sodipodi:ry="12.321428"
           sodipodi:rx="12.321428"
           sodipodi:cy="306.96423"
           sodipodi:cx="96.60714"
           id="path4670"
           style="fill:#000000;fill-opacity:1;fill-rule:nonzero;stroke:none"
           sodipodi:type="arc" />
      </g>
      <g
         transform="matrix(0.565647,0,0,0.565647,167.3606,261.2025)"
         id="g10163">
        <path
           style="fill:none;stroke:#003399;stroke-width:15;stroke-linecap:butt;stroke-linejoin:miter;stroke-miterlimit:4;stroke-opacity:1;stroke-dasharray:none"
           d="m 79.578777,497.44957 c 0,0 28.361393,30.9246 56.722803,30.9246 28.36135,0 56.72276,-26.9246 56.72276,-26.9246 0,0 28.36136,26.9246 56.72273,26.9246 28.36135,0 56.72274,-26.9246 56.72274,-26.9246 0,0 28.36137,26.9246 56.72274,26.9246 28.36137,0 56.72277,-26.9246 56.72277,-26.9246 0,0 28.3614,26.9246 56.7228,26.9246 28.3613,0 56.7227,-30.9246 56.7227,-30.9246"
           id="path4847"
           sodipodi:nodetypes="cscscscsc"
           inkscape:connector-curvature="0" />
        <path
           style="fill:none;stroke:#003399;stroke-width:15;stroke-linecap:butt;stroke-linejoin:miter;stroke-miterlimit:4;stroke-opacity:1;stroke-dasharray:none"
           d="m 79.578737,458.87814 c 0,0 28.361403,30.9246 56.722813,30.9246 28.36135,0 56.72276,-30.9246 56.72276,-30.9246 0,0 28.36136,30.9246 56.72273,30.9246 28.36135,0 56.72274,-30.9246 56.72274,-30.9246 0,0 28.36137,30.9246 56.72274,30.9246 28.36139,0 56.7228,-30.9246 56.7228,-30.9246 0,0 28.3613,30.9246 56.7227,30.9246 28.3614,0 56.7228,-30.9246 56.7228,-30.9246"
           id="path9274"
           sodipodi:nodetypes="cscscscsc"
           inkscape:connector-curvature="0" />
      </g>
    </g>
  </g>
</svg>
