<?xml version="1.0" encoding="UTF-8" standalone="no"?>
<!-- Created with Inkscape (http://www.inkscape.org/) -->

<svg
   xmlns:dc="http://purl.org/dc/elements/1.1/"
   xmlns:cc="http://creativecommons.org/ns#"
   xmlns:rdf="http://www.w3.org/1999/02/22-rdf-syntax-ns#"
   xmlns:svg="http://www.w3.org/2000/svg"
   xmlns="http://www.w3.org/2000/svg"
   xmlns:sodipodi="http://sodipodi.sourceforge.net/DTD/sodipodi-0.dtd"
   xmlns:inkscape="http://www.inkscape.org/namespaces/inkscape"
   height="498.97775"
   width="498.97797"
   id="svg2"
   sodipodi:version="0.32"
   inkscape:version="0.48.2 r9819"
   version="1.0"
   sodipodi:docname="AJAX.svg">
  <defs
     id="defs4">
    <pattern
       patternUnits="userSpaceOnUse"
       width="370"
       height="476"
       patternTransform="translate(18.50938,18)"
       id="pattern5932">
      <rect
         ry="20"
         rx="20"
         y="0"
         x="0"
         height="476"
         width="370"
         id="rect5934"
         style="fill:#00e5ff;fill-opacity:1" />
    </pattern>
    <pattern
       id="pattern4002"
       patternTransform="translate(18.50938,18)"
       height="476"
       width="370"
       patternUnits="userSpaceOnUse">
      <rect
         style="fill:#00e5ff;fill-opacity:1"
         id="rect2240"
         width="370"
         height="476"
         x="0"
         y="0"
         rx="20"
         ry="20" />
    </pattern>
    <marker
       style="overflow:visible"
       id="Arrow2Lstart"
       refX="0"
       refY="0"
       orient="auto"
       inkscape:stockid="Arrow2Lstart">
      <path
         transform="matrix(1.1,0,0,1.1,1.1,0)"
         d="M 8.7185878,4.0337352 -2.2072895,0.01601326 8.7185884,-4.0017078 c -1.7454984,2.3720609 -1.7354408,5.6174519 -6e-7,8.035443 z"
         style="font-size:12px;fill-rule:evenodd;stroke-width:0.625;stroke-linejoin:round"
         id="path5785"
         inkscape:connector-curvature="0" />
    </marker>
  </defs>
  <sodipodi:namedview
     id="base"
     pagecolor="#ffffff"
     bordercolor="#666666"
     borderopacity="1.0"
     inkscape:pageopacity="0.0"
     inkscape:pageshadow="2"
     inkscape:cx="132.50112"
     inkscape:cy="249.48887"
     inkscape:zoom="1.2720002"
     inkscape:document-units="px"
     inkscape:current-layer="layer1"
     inkscape:window-width="1280"
     inkscape:window-height="1004"
     inkscape:window-x="-8"
     inkscape:window-y="-8"
     showgrid="false"
     fit-margin-top="0"
     fit-margin-left="0"
     fit-margin-right="0"
     fit-margin-bottom="0"
     inkscape:window-maximized="1" />
  <metadata
     id="metadata7">
    <rdf:RDF>
      <cc:Work
         rdf:about="">
        <dc:format>image/svg+xml</dc:format>
        <dc:type
           rdf:resource="http://purl.org/dc/dcmitype/StillImage" />
      </cc:Work>
    </rdf:RDF>
  </metadata>
  <g
     inkscape:groupmode="layer"
     inkscape:label="Warstwa 1"
     id="layer1"
     transform="translate(-3.0110038,-3.0111274)">
    <path
       sodipodi:type="arc"
       style="fill:#003399;fill-opacity:1;stroke:none"
       id="path1307"
       sodipodi:cx="394.28571"
       sodipodi:cy="549.50507"
       sodipodi:rx="234.28572"
       sodipodi:ry="254.28572"
       d="m 628.57143,549.50507 c 0,140.43812 -104.89329,254.28572 -234.28572,254.28572 -129.39244,0 -234.28573,-113.8476 -234.28573,-254.28572 0,-140.43813 104.89329,-254.28572 234.28573,-254.28572 129.39243,0 234.28572,113.84759 234.28572,254.28572 z"
       transform="matrix(1.064892,0,0,0.981136,-167.3717,-286.6392)" />
    <path
       style="fill:#ffffff;fill-opacity:1;fill-rule:nonzero;stroke:none"
       d="M 172.6875 36.46875 L 72.6875 206.75 L 144.03125 206.75 L 144.03125 443.46875 L 204.375 443.46875 L 204.25 335.8125 C 207.09623 329.43709 211.3253 324.16125 216.5 319.5625 C 226.62967 310.56026 240.79939 304.59134 255.3125 300.875 C 266.62962 297.97705 278.01002 296.44022 287.71875 295.65625 L 287.84375 314.34375 L 287.9375 316.28125 L 288.3125 372.59375 L 457.9375 271.46875 L 287 172.59375 L 287.375 228.90625 L 287.3125 229.21875 L 287.34375 232.9375 C 275.55473 233.44861 259.66605 234.97015 243.5625 239.09375 C 229.78942 242.62059 215.7882 248.02854 204.1875 256.71875 L 204.125 206.75 L 272.6875 206.75 L 172.6875 36.46875 z "
       transform="translate(3.0110038,3.0111274)"
       id="rect5814" />
  </g>
</svg>
