<?xml version="1.0" encoding="UTF-8" standalone="no"?>
<!-- Created with Inkscape (http://www.inkscape.org/) -->

<svg
   xmlns:dc="http://purl.org/dc/elements/1.1/"
   xmlns:cc="http://creativecommons.org/ns#"
   xmlns:rdf="http://www.w3.org/1999/02/22-rdf-syntax-ns#"
   xmlns:svg="http://www.w3.org/2000/svg"
   xmlns="http://www.w3.org/2000/svg"
   xmlns:sodipodi="http://sodipodi.sourceforge.net/DTD/sodipodi-0.dtd"
   xmlns:inkscape="http://www.inkscape.org/namespaces/inkscape"
   width="602.20001"
   height="752.20001"
   id="svg2"
   sodipodi:version="0.32"
   inkscape:version="0.48.2 r9819"
   version="1.0"
   sodipodi:docname="Aa.svg">
  <defs
     id="defs4" />
  <sodipodi:namedview
     id="base"
     pagecolor="#ffffff"
     bordercolor="#666666"
     borderopacity="1.0"
     inkscape:pageopacity="0.0"
     inkscape:pageshadow="2"
     inkscape:zoom="0.708"
     inkscape:cx="237.51129"
     inkscape:cy="294.27423"
     inkscape:document-units="px"
     inkscape:current-layer="text1369"
     showgrid="true"
     inkscape:window-width="1280"
     inkscape:window-height="1004"
     inkscape:window-x="-8"
     inkscape:window-y="-8"
     fit-margin-top="0.1"
     fit-margin-left="0.1"
     fit-margin-right="0.1"
     fit-margin-bottom="0.1"
     inkscape:window-maximized="1">
    <inkscape:grid
       id="GridFromPre046Settings"
       type="xygrid"
       originx="0px"
       originy="230px"
       spacingx="55px"
       spacingy="55px"
       color="#0000ff"
       empcolor="#0000ff"
       opacity="0.2"
       empopacity="0.4"
       empspacing="8"
       visible="true"
       enabled="true"
       snapvisiblegridlinesonly="true" />
  </sodipodi:namedview>
  <metadata
     id="metadata7">
    <rdf:RDF>
      <cc:Work
         rdf:about="">
        <dc:format>image/svg+xml</dc:format>
        <dc:type
           rdf:resource="http://purl.org/dc/dcmitype/StillImage" />
        <dc:title>PL - Znak drogowy D15</dc:title>
        <dc:date>29.07.2006</dc:date>
        <dc:creator>
          <cc:Agent>
            <dc:title>MaciekS</dc:title>
          </cc:Agent>
        </dc:creator>
        <dc:rights>
          <cc:Agent>
            <dc:title>Free</dc:title>
          </cc:Agent>
        </dc:rights>
        <dc:publisher>
          <cc:Agent>
            <dc:title>Wikipedia</dc:title>
          </cc:Agent>
        </dc:publisher>
        <dc:subject>
          <rdf:Bag>
            <rdf:li>znak drogowy informacyjny</rdf:li>
          </rdf:Bag>
        </dc:subject>
        <dc:description>Znaki drogowe -Polska. Wykonane na podstawie załącznika do Ustawy</dc:description>
      </cc:Work>
    </rdf:RDF>
  </metadata>
  <g
     inkscape:label="Layer 1"
     inkscape:groupmode="layer"
     id="layer1"
     transform="translate(1.1,1.1)">
    <rect
       style="fill:#ffffff;fill-opacity:1;fill-rule:nonzero;stroke:#000000;stroke-width:2;stroke-linecap:butt;stroke-linejoin:round;stroke-miterlimit:4;stroke-opacity:1;stroke-dasharray:none;stroke-dashoffset:0"
       id="rect2188"
       width="600"
       height="750"
       x="0"
       y="0"
       ry="21.226416" />
    <rect
       style="fill:#003399;fill-opacity:1;fill-rule:nonzero;stroke:none"
       id="rect1307"
       width="589"
       height="739"
       x="5.5"
       y="5.5"
       ry="20.915094" />
    <rect
       style="fill:#ffffff;fill-opacity:1;fill-rule:nonzero;stroke:none"
       id="rect3055"
       width="440"
       height="440"
       x="80"
       y="80"
       ry="0" />
    <g
       transform="scale(0.95974042,1.0419484)"
       style="font-size:213.6804657px;font-style:normal;font-variant:normal;font-weight:bold;font-stretch:normal;text-align:start;line-height:125%;writing-mode:lr-tb;text-anchor:start;fill:#000000;fill-opacity:1;stroke:none;font-family:Arial"
       id="text1369">
      <path
         d="m 176.03449,338.97153 -36.51765,-152.95682 31.61385,0 23.0583,105.06652 27.96209,-105.06652 36.72633,0 26.81439,106.84023 23.47564,-106.84023 31.09218,0 -37.14368,152.95682 -32.76155,0 -30.46616,-114.35244 -30.36183,114.35244 z"
         style="fill:#000000;fill-opacity:1;stroke:none"
         id="path4206" />
      <path
         d="m 453.77736,282.73433 29.94448,9.4946 c -4.59093,16.69381 -12.22485,29.09241 -22.90178,37.19584 -10.67718,8.10344 -24.22348,12.15516 -40.63894,12.15516 -20.31083,0 -37.0046,-6.93835 -50.08136,-20.81506 -13.07682,-13.87668 -19.61521,-32.84846 -19.6152,-56.91538 -10e-6,-25.45793 6.57316,-45.22961 19.71954,-59.31511 13.14631,-14.08524 30.43132,-21.12792 51.85507,-21.12807 18.71085,1.5e-4 33.90914,5.52996 45.5949,16.58945 6.95561,6.53853 12.17242,15.92877 15.65043,28.17076 l -30.5705,7.30353 c -1.8086,-7.92944 -5.58209,-14.1896 -11.32047,-18.78051 -5.73859,-4.59066 -12.71171,-6.88606 -20.9194,-6.88619 -11.33793,1.3e-4 -20.5369,4.06924 -27.59692,12.20734 -7.06012,8.13833 -10.59016,21.31945 -10.59012,39.5434 -4e-5,19.33703 3.47783,33.10939 10.43362,41.31712 6.95568,8.20781 15.99814,12.3117 27.1274,12.31167 8.20769,3e-5 15.26776,-2.60838 21.18024,-7.82521 5.91228,-5.21677 10.15528,-13.42454 12.72901,-24.62334 z"
         style="fill:#000000;fill-opacity:1;stroke:none"
         id="path4208" />
    </g>
  </g>
</svg>
