<?xml version="1.0" encoding="UTF-8" standalone="no"?>
<!-- Created with Inkscape (http://www.inkscape.org/) -->

<svg
   xmlns:dc="http://purl.org/dc/elements/1.1/"
   xmlns:cc="http://creativecommons.org/ns#"
   xmlns:rdf="http://www.w3.org/1999/02/22-rdf-syntax-ns#"
   xmlns:svg="http://www.w3.org/2000/svg"
   xmlns="http://www.w3.org/2000/svg"
   xmlns:sodipodi="http://sodipodi.sourceforge.net/DTD/sodipodi-0.dtd"
   xmlns:inkscape="http://www.inkscape.org/namespaces/inkscape"
   width="400.00012"
   height="399.99991"
   id="svg5982"
   sodipodi:version="0.32"
   inkscape:version="0.48.2 r9819"
   sodipodi:docname="Aa.svg"
   version="1.0">
  <defs
     id="defs5984">
    <pattern
       id="pattern4002"
       patternTransform="translate(18.50938,18)"
       height="476"
       width="370"
       patternUnits="userSpaceOnUse">
      <rect
         style="fill:#00e5ff;fill-opacity:1"
         id="rect2240"
         width="370"
         height="476"
         x="0"
         y="0"
         rx="20"
         ry="20" />
    </pattern>
  </defs>
  <sodipodi:namedview
     id="base"
     pagecolor="#ffffff"
     bordercolor="#666666"
     borderopacity="1.0"
     gridtolerance="10000"
     guidetolerance="10"
     objecttolerance="10"
     inkscape:pageopacity="0.0"
     inkscape:pageshadow="2"
     inkscape:zoom="0.98994949"
     inkscape:cx="144.85335"
     inkscape:cy="171.61779"
     inkscape:document-units="px"
     inkscape:current-layer="layer1"
     inkscape:window-width="1280"
     inkscape:window-height="1004"
     inkscape:window-x="-8"
     inkscape:window-y="-8"
     showgrid="false"
     fit-margin-top="0"
     fit-margin-left="0"
     fit-margin-right="0"
     fit-margin-bottom="0"
     inkscape:window-maximized="1" />
  <metadata
     id="metadata5987">
    <rdf:RDF>
      <cc:Work
         rdf:about="">
        <dc:format>image/svg+xml</dc:format>
        <dc:type
           rdf:resource="http://purl.org/dc/dcmitype/StillImage" />
      </cc:Work>
    </rdf:RDF>
  </metadata>
  <g
     inkscape:label="Layer 1"
     inkscape:groupmode="layer"
     id="layer1"
     transform="translate(-174.2856,-303.7908)">
    <g
       transform="translate(-100.0001,-6.285786)"
       id="g6038"
       inkscape:label="Layer 1">
      <g
         inkscape:label="Layer 1"
         id="g5871"
         transform="translate(218.9449,96.7782)">
        <g
           id="g4672"
           transform="translate(334.1429,296.3621)">
          <g
             id="g4679"
             transform="matrix(0.985222,0,0,0.976563,-278.8021,-85.06397)">
            <g
               transform="matrix(1,0,0,0.995024,0,2.04826)"
               id="g5881">
              <path
                 style="fill:#003399;fill-opacity:1;stroke:none"
                 d="m 38,0 330,0 c 21.052,0 38,16.948 38,38 l 0,335.64805 c 0,21.052 -16.948,38 -38,38 l -330,0 c -21.052,0 -38,-16.948 -38,-38 L 0,38 C 0,16.948 16.948,0 38,0 z"
                 id="rect1363"
                 sodipodi:nodetypes="ccccccccc"
                 inkscape:connector-curvature="0" />
              <path
                 style="fill:#ffffff;fill-opacity:1;stroke:none"
                 d="m 38,6 330,0 c 17.728,0 32,14.272 32,32 l 0,333.60005 c 0,17.728 -14.272,32 -32,32 l -330,0 c -17.728,0 -32,-14.272 -32,-32 L 6,38 C 6,20.272 20.272,6 38,6 z"
                 id="rect1365"
                 sodipodi:nodetypes="ccccccccc"
                 inkscape:connector-curvature="0" />
              <path
                 style="fill:#003399;fill-opacity:1;stroke:none"
                 d="m 38.509384,18 329.999996,0 c 11.08,0 20,8.92 20,20 l 0,333.60005 c 0,11.08 -8.92,20 -20,20 l -329.999996,0 c -11.08,0 -20,-8.92 -20,-20 l 0,-333.60005 c 0,-11.08 8.92,-20 20,-20 z"
                 id="rect4005"
                 sodipodi:nodetypes="ccccccccc"
                 inkscape:connector-curvature="0" />
            </g>
          </g>
        </g>
      </g>
    </g>
    <g
       id="g11468"
       transform="matrix(1.179332,0,0,1.179332,-63.7839,-80.10706)">
      <g
         id="g11472"
         transform="translate(0.847943,4.877022e-7)">
        <path
           style="fill:#d40000;fill-opacity:1;fill-rule:nonzero;stroke:#ffffff;stroke-width:3.63762474000000010;stroke-miterlimit:4;stroke-opacity:1;stroke-dasharray:none;stroke-dashoffset:0"
           d="m 295.33056,573.33672 57.29258,-91.87276 -30.94115,0 0,-111.99337 -54.3398,0 0,111.99337 -29.32696,0 57.31533,91.87276 z"
           id="rect11461"
           sodipodi:nodetypes="cccccccc"
           inkscape:connector-curvature="0" />
        <path
           style="fill:#ffffff;fill-opacity:1;fill-rule:nonzero;stroke:#ffffff;stroke-width:4.85441971;stroke-miterlimit:4;stroke-opacity:1;stroke-dasharray:none;stroke-dashoffset:0"
           d="m 443.80026,370.07899 -58.76122,100.60444 35.04068,0 0,149.45545 49.6256,0 0,-149.45545 32.88652,0 -58.79158,-100.60444 z"
           id="path11466"
           sodipodi:nodetypes="cccccccc"
           inkscape:connector-curvature="0" />
      </g>
    </g>
  </g>
</svg>
