<?xml version="1.0" encoding="UTF-8" standalone="no"?>
<!-- Created with Inkscape (http://www.inkscape.org/) -->

<svg
   xmlns:dc="http://purl.org/dc/elements/1.1/"
   xmlns:cc="http://creativecommons.org/ns#"
   xmlns:rdf="http://www.w3.org/1999/02/22-rdf-syntax-ns#"
   xmlns:svg="http://www.w3.org/2000/svg"
   xmlns="http://www.w3.org/2000/svg"
   xmlns:sodipodi="http://sodipodi.sourceforge.net/DTD/sodipodi-0.dtd"
   xmlns:inkscape="http://www.inkscape.org/namespaces/inkscape"
   width="500.00037"
   height="630.00018"
   id="svg2"
   sodipodi:version="0.32"
   inkscape:version="0.48.2 r9819"
   version="1.0"
   sodipodi:docname="Aa.svg">
  <defs
     id="defs4">
    <pattern
       patternUnits="userSpaceOnUse"
       width="370"
       height="476"
       patternTransform="translate(18.50938,18)"
       id="pattern4002">
      <rect
         ry="20"
         rx="20"
         y="0"
         x="0"
         height="476"
         width="370"
         id="rect2240"
         style="fill:#00e5ff;fill-opacity:1" />
    </pattern>
  </defs>
  <sodipodi:namedview
     id="base"
     pagecolor="#ffffff"
     bordercolor="#666666"
     borderopacity="1.0"
     gridtolerance="10000"
     guidetolerance="10"
     objecttolerance="10"
     inkscape:pageopacity="0.0"
     inkscape:pageshadow="2"
     inkscape:zoom="0.70710678"
     inkscape:cx="92.868393"
     inkscape:cy="256.49756"
     inkscape:document-units="px"
     inkscape:current-layer="layer1"
     showguides="true"
     inkscape:guide-bbox="true"
     inkscape:window-width="1280"
     inkscape:window-height="1004"
     inkscape:window-x="-8"
     inkscape:window-y="-8"
     showgrid="false"
     fit-margin-top="0"
     fit-margin-left="0"
     fit-margin-right="0"
     fit-margin-bottom="0"
     inkscape:window-maximized="1" />
  <metadata
     id="metadata7">
    <rdf:RDF>
      <cc:Work
         rdf:about="">
        <dc:format>image/svg+xml</dc:format>
        <dc:type
           rdf:resource="http://purl.org/dc/dcmitype/StillImage" />
      </cc:Work>
    </rdf:RDF>
  </metadata>
  <g
     inkscape:label="Layer 1"
     inkscape:groupmode="layer"
     id="layer1"
     transform="translate(-12.484041,-315.48001)">
    <g
       id="g11000"
       transform="matrix(0.93985,0,0,0.935432,-628.4784,33.44339)">
      <g
         inkscape:label="Layer 1"
         id="g10108"
         transform="matrix(1.33,0,0,1.346971,608.3805,16.89169)">
        <g
           id="g4672"
           transform="translate(334.1429,296.3621)">
          <g
             id="g4679"
             transform="matrix(0.985222,0,0,0.976563,-278.8021,-85.06397)">
            <rect
               style="fill:#003399;fill-opacity:1;stroke:none"
               id="rect1363"
               width="406"
               height="512"
               x="0"
               y="0"
               rx="38"
               ry="38" />
            <rect
               style="fill:#ffffff;fill-opacity:1;stroke:none"
               id="rect1365"
               width="394"
               height="500"
               x="6"
               y="6"
               rx="32"
               ry="32" />
            <rect
               style="fill:#003399;fill-opacity:1;stroke:none"
               width="370"
               height="476"
               x="18.509384"
               y="18"
               id="rect4005"
               rx="20"
               ry="20" />
          </g>
        </g>
      </g>
      <path
         sodipodi:nodetypes="ccccscsscccccccccc"
         d="m 890.84688,761.95185 -88.63474,0 0,-398.02378 226.49516,0 c 0,0 32.6093,3.70306 46.8702,17.96394 16.2621,16.26207 18.1781,47.08436 18.1781,47.08436 0,0 0,118.70204 0,168.35219 0,6.39973 -6.6654,19.71936 -25.8651,30.80429 -19.1997,11.08494 -50.9336,9.53546 -50.9336,9.53546 l -126.11002,0 0,124.28354 z m 0,-317.22024 0,115.12308 108.05091,0 c 7.80951,0 14.09341,-6.28387 14.09341,-14.09342 l 0,-86.93069 c 0,-7.80956 -6.2839,-14.09897 -14.09341,-14.09897 l -108.05091,0 z"
         style="fill:#ffffff;fill-rule:evenodd;stroke:none"
         id="path3878"
         inkscape:connector-curvature="0" />
      <path
         d="m 910.25675,797.65271 246.04565,0 0,118.0256 -246.04565,0 0,-118.0256 z m 4.7275,113.29804 236.59425,-108.57422 m -236.59425,0 236.59425,108.57422"
         style="fill:none;stroke:#ffffff;stroke-width:18.89595413000000000;stroke-miterlimit:4;stroke-opacity:1;stroke-dasharray:none;stroke-dashoffset:50"
         id="rect3885"
         inkscape:connector-curvature="0" />
    </g>
  </g>
</svg>
