<?xml version="1.0" encoding="UTF-8" standalone="no"?>
<!-- Created with Inkscape (http://www.inkscape.org/) -->

<svg
   xmlns:dc="http://purl.org/dc/elements/1.1/"
   xmlns:cc="http://creativecommons.org/ns#"
   xmlns:rdf="http://www.w3.org/1999/02/22-rdf-syntax-ns#"
   xmlns:svg="http://www.w3.org/2000/svg"
   xmlns="http://www.w3.org/2000/svg"
   xmlns:sodipodi="http://sodipodi.sourceforge.net/DTD/sodipodi-0.dtd"
   xmlns:inkscape="http://www.inkscape.org/namespaces/inkscape"
   version="1.0"
   width="956.36053"
   height="559.19598"
   id="svg10411"
   inkscape:version="0.48.2 r9819"
   sodipodi:docname="Aa.svg">
  <metadata
     id="metadata28">
    <rdf:RDF>
      <cc:Work
         rdf:about="">
        <dc:format>image/svg+xml</dc:format>
        <dc:type
           rdf:resource="http://purl.org/dc/dcmitype/StillImage" />
      </cc:Work>
    </rdf:RDF>
  </metadata>
  <sodipodi:namedview
     pagecolor="#ffffff"
     bordercolor="#666666"
     borderopacity="1"
     objecttolerance="10"
     gridtolerance="10"
     guidetolerance="10"
     inkscape:pageopacity="0"
     inkscape:pageshadow="2"
     inkscape:window-width="1280"
     inkscape:window-height="1004"
     id="namedview26"
     showgrid="false"
     inkscape:zoom="0.67082276"
     inkscape:cx="390.6373"
     inkscape:cy="222.34119"
     inkscape:window-x="-8"
     inkscape:window-y="-8"
     inkscape:window-maximized="1"
     inkscape:current-layer="svg10411"
     fit-margin-top="0"
     fit-margin-left="0"
     fit-margin-right="0"
     fit-margin-bottom="0" />
  <defs
     id="defs10413">
    <pattern
       patternUnits="userSpaceOnUse"
       width="370"
       height="476"
       patternTransform="translate(18.50938,18)"
       id="pattern4002">
      <rect
         ry="20"
         rx="20"
         y="0"
         x="0"
         height="476"
         width="370"
         id="rect2240"
         style="fill:#00e5ff;fill-opacity:1" />
    </pattern>
    <pattern
       id="pattern15960"
       patternTransform="translate(18.50938,18)"
       height="476"
       width="370"
       patternUnits="userSpaceOnUse">
      <rect
         style="fill:#00e5ff;fill-opacity:1"
         id="rect15962"
         width="370"
         height="476"
         x="0"
         y="0"
         rx="20"
         ry="20" />
    </pattern>
    <pattern
       id="pattern17873"
       patternTransform="translate(18.50938,18)"
       height="476"
       width="370"
       patternUnits="userSpaceOnUse">
      <rect
         style="fill:#00e5ff;fill-opacity:1"
         id="rect17875"
         width="370"
         height="476"
         x="0"
         y="0"
         rx="20"
         ry="20" />
    </pattern>
    <pattern
       patternUnits="userSpaceOnUse"
       width="370"
       height="476"
       patternTransform="translate(18.50938,18)"
       id="pattern17869">
      <rect
         ry="20"
         rx="20"
         y="0"
         x="0"
         height="476"
         width="370"
         id="rect17871"
         style="fill:#00e5ff;fill-opacity:1" />
    </pattern>
  </defs>
  <g
     transform="translate(-2634.6837,388.62033)"
     id="layer1">
    <g
       transform="matrix(0.995882,0,0,0.997036,2163.725,-3.496205)"
       id="g16896">
      <g
         transform="matrix(0.996209,0,0,0.998564,1.786034,0.251353)"
         id="g20637">
        <path
           d="m 1411.5255,-334.50658 0,456.52562 c 0,15.32819 -12.0556,27.66822 -27.0305,27.66822 l -859.1948,0 c -14.9748,0 -27.0304,-12.34003 -27.0304,-27.66822 l 0,-456.52562 c 0,-15.32821 12.0556,-27.66823 27.0304,-27.66823 l 859.1948,0 c 14.9749,0 27.0305,12.34002 27.0305,27.66823 z"
           style="fill:#003399;fill-opacity:1;stroke:none"
           id="rect4005"
           inkscape:connector-curvature="0" />
        <g
           transform="translate(23.32958,8.79562)"
           style="fill:#ffffff"
           id="g19744">
          <path
             d="m 833.18048,-333.69665 -11.8438,44.5 -7.4375,7.40625 0,66.78124 7.4375,0 0,22.25 22.25,0 0,-22.25 103.8438,0 0,22.25 22.24996,0 0,-22.25 7.4375,0 0,-66.78124 -7.4375,-7.40625 -11.87496,-44.5 -124.625,0 z m 5.9375,7.4375 112.7812,0 5.9063,29.65625 -124.625,0 5.9375,-29.65625 z m -7.1563,54.78125 c 6.4413,10e-6 11.6875,5.24618 11.6875,11.6875 0,6.44132 -5.2462,11.65625 -11.6875,11.65625 -6.4413,-1e-5 -11.6562,-5.21493 -11.6562,-11.65625 0,-6.44132 5.2149,-11.6875 11.6562,-11.6875 z m 127.0625,0 c 6.44136,10e-6 11.68746,5.24618 11.68746,11.6875 0,6.44132 -5.2462,11.65625 -11.68746,11.65625 -6.4413,-1e-5 -11.6562,-5.21493 -11.6562,-11.65625 0,-6.44132 5.2149,-11.6875 11.6562,-11.6875 z m -125.8437,32.87499 124.6562,0 c 3.6574,0 6.5938,2.63869 6.5938,5.90625 0,3.26757 -2.9364,5.90625 -6.5938,5.90625 l -124.6562,0 c -3.6574,-1e-5 -6.5938,-2.63869 -6.5938,-5.90625 0,-3.26754 2.9364,-5.90625 6.5938,-5.90625 z"
             style="fill:#ffffff;fill-opacity:1;fill-rule:evenodd;stroke:none"
             id="path1307"
             inkscape:connector-curvature="0" />
          <path
             d="m 637.53788,-257.26089 c 12.0538,0 21.8295,9.79936 21.8295,21.85319 0,12.05384 -9.7756,21.82958 -21.8295,21.82958 -12.0538,0 -21.8296,-9.77575 -21.8296,-21.82958 0,-12.05383 9.7758,-21.85318 21.8296,-21.85319 z m -0.6844,45.00436 38.8921,74.76335 39.6708,37.38168 -10.6906,28.225064 -59.4944,-62.538804 -7.6226,65.606734 37.3815,53.38218 29.7355,82.38601 38.9156,3.82312 -61.7836,20.60242 -26.7146,-93.0766199 -38.8921,-38.1368701 -53.4057,105.27758 36.6266,25.93591 -42.7388,0 -34.3139,-19.84723 70.1852,-137.30216 6.0886,-28.98024 0,-60.273234 -26.6911,28.22505 0,75.518554 -21.3576,-11.44579 0,-74.763354 45.7596,-51.87181 40.4495,-22.89154 z"
             style="fill:#ffffff;fill-rule:evenodd;stroke:none"
             id="path1933"
             inkscape:connector-curvature="0" />
          <path
             d="m 1010.2566,-35.140906 c -4.7975,0 -8.6883,3.90019 -8.6883,8.69768 0,4.79747 3.8908,8.68826 8.6883,8.68826 4.7974,0 8.6882,-3.89079 8.6882,-8.68826 0,-4.79749 -3.8908,-8.69768 -8.6882,-8.69768 z m 0.2723,17.91195 -15.47906,29.75614 -15.7892,14.87808 4.2549,11.2337 23.67896,-24.89072 3.0339,26.11177 -14.87806,21.24635 -11.8348,32.79003 -15.4886,1.52162 24.5901,8.199846 10.63256,-37.044936 15.4792,-15.17864 7.1095,27.16157 24.6819,1.70368 -5.4703,6.92976 10.5816,0 9.0142,-14.685 -29.1834,-5.16484 -7.322,-26.26778 -2.4233,-11.53427 0,-23.9890099 10.6231,11.2336899 0,30.05673 8.5005,-4.55547 0,-29.75616 -18.2126,-20.6452099 -16.0991,-9.1109301 z"
             style="fill:#ffffff;fill-rule:evenodd;stroke:none"
             id="path11504"
             inkscape:connector-curvature="0" />
          <path
             d="m 1118.5096,-156.7402 c 0,0 0,41.71659 0,63.780954 0,20.06336 30.6448,33.36191 47.7766,33.36191 57.1927,0 194.3663,0 194.3663,0"
             style="fill:none;stroke:#ffffff;stroke-width:9;stroke-linecap:butt;stroke-linejoin:miter;stroke-miterlimit:4;stroke-opacity:1;stroke-dasharray:none"
             id="path13278"
             inkscape:connector-curvature="0" />
          <path
             d="m 1311.904,-314.81543 -50.6563,34.21875 0,173.74999 28.2813,0 0,-56.59374 44.7187,0 0,56.59374 28.2813,0 0,-173.74999 -50.625,-34.21875 z m -20.2188,77.125 40.4063,0 0,39.53125 -40.4063,0 0,-39.53125 z"
             style="fill:#ffffff;fill-rule:evenodd;stroke:none"
             id="path15050"
             inkscape:connector-curvature="0" />
          <path
             d="m 1990.0005,118.98123 a 7.0710678,7.0710678 0 1 1 -14.1421,0 7.0710678,7.0710678 0 1 1 14.1421,0 z"
             transform="translate(-1043.681,-32.4873)"
             style="fill:#ffffff;fill-opacity:1;fill-rule:nonzero;stroke:#ffffff;stroke-width:9;stroke-miterlimit:4;stroke-opacity:1;stroke-dasharray:none;stroke-dashoffset:50"
             id="path16869"
             inkscape:connector-curvature="0" />
        </g>
        <path
           d="m 524.28067,-387.07622 c -28.45227,0 -51.36778,23.43848 -51.36778,52.56205 l 0,456.54078 c 0,29.12358 22.91551,52.56203 51.36778,52.56206 l 861.23403,0 c 28.4522,0 51.3677,-23.4385 51.3677,-52.56206 l 0,-456.54078 c 0,-29.12357 -22.9156,-52.56205 -51.3677,-52.56205 l -861.23403,0 z m 0,8.30588 861.23403,0 c 23.9597,0 43.2719,19.73106 43.2719,44.25617 l 0,456.54078 c 0,24.5251 -19.3121,44.25619 -43.2719,44.25619 l -861.23403,0 c -23.9598,-2e-5 -43.27195,-19.73107 -43.27195,-44.25619 l 0,-456.54078 c 0,-24.52511 19.31215,-44.25617 43.27195,-44.25617 z"
           style="fill:#003399;fill-opacity:1;stroke:none"
           id="rect1363"
           inkscape:connector-curvature="0" />
      </g>
    </g>
  </g>
</svg>
