<?xml version="1.0" encoding="UTF-8" standalone="no"?>
<!-- Created with Inkscape (http://www.inkscape.org/) -->

<svg
   xmlns:dc="http://purl.org/dc/elements/1.1/"
   xmlns:cc="http://creativecommons.org/ns#"
   xmlns:rdf="http://www.w3.org/1999/02/22-rdf-syntax-ns#"
   xmlns:svg="http://www.w3.org/2000/svg"
   xmlns="http://www.w3.org/2000/svg"
   xmlns:sodipodi="http://sodipodi.sourceforge.net/DTD/sodipodi-0.dtd"
   xmlns:inkscape="http://www.inkscape.org/namespaces/inkscape"
   version="1.0"
   width="406"
   height="512"
   id="svg10889"
   inkscape:version="0.48.2 r9819"
   sodipodi:docname="Aa.svg">
  <metadata
     id="metadata27">
    <rdf:RDF>
      <cc:Work
         rdf:about="">
        <dc:format>image/svg+xml</dc:format>
        <dc:type
           rdf:resource="http://purl.org/dc/dcmitype/StillImage" />
      </cc:Work>
    </rdf:RDF>
  </metadata>
  <sodipodi:namedview
     pagecolor="#ffffff"
     bordercolor="#666666"
     borderopacity="1"
     objecttolerance="10"
     gridtolerance="10"
     guidetolerance="10"
     inkscape:pageopacity="0"
     inkscape:pageshadow="2"
     inkscape:window-width="1280"
     inkscape:window-height="1004"
     id="namedview25"
     showgrid="false"
     inkscape:zoom="0.921875"
     inkscape:cx="226.30794"
     inkscape:cy="202.46594"
     inkscape:window-x="-8"
     inkscape:window-y="-8"
     inkscape:window-maximized="1"
     inkscape:current-layer="svg10889"
     fit-margin-top="0"
     fit-margin-left="0"
     fit-margin-right="0"
     fit-margin-bottom="0" />
  <defs
     id="defs10904">
    <pattern
       patternUnits="userSpaceOnUse"
       width="370"
       height="476"
       patternTransform="translate(18.50938,18)"
       id="pattern4002">
      <rect
         ry="20"
         rx="20"
         y="0"
         x="0"
         height="476"
         width="370"
         id="rect2240"
         style="fill:#00e5ff;fill-opacity:1" />
    </pattern>
  </defs>
  <desc
     id="desc10891">wmf2svg</desc>
  <rect
     width="406"
     height="512"
     rx="38"
     ry="38"
     x="0"
     y="0"
     style="fill:#003399;fill-opacity:1;stroke:none"
     id="rect1363" />
  <rect
     width="394"
     height="500"
     rx="32"
     ry="32"
     x="6"
     y="6"
     style="fill:#ffffff;fill-opacity:1;stroke:none"
     id="rect1365" />
  <rect
     width="370"
     height="476"
     rx="20"
     ry="20"
     x="18.509384"
     y="18"
     style="fill:#003399;fill-opacity:1;stroke:none"
     id="rect4005" />
  <rect
     width="10.748302"
     height="41.798946"
     x="36.118813"
     y="40.024109"
     style="fill:#ffffff;fill-opacity:1;fill-rule:evenodd;stroke:none"
     id="rect3948" />
  <rect
     width="10.748302"
     height="41.798946"
     x="36.118813"
     y="117.65072"
     style="fill:#ffffff;fill-opacity:1;fill-rule:evenodd;stroke:none"
     id="rect4835" />
  <rect
     width="10.748302"
     height="41.798946"
     x="36.118813"
     y="195.27731"
     style="fill:#ffffff;fill-opacity:1;fill-rule:evenodd;stroke:none"
     id="rect4837" />
  <rect
     width="10.748302"
     height="41.798946"
     x="36.118813"
     y="272.90393"
     style="fill:#ffffff;fill-opacity:1;fill-rule:evenodd;stroke:none"
     id="rect4839" />
  <rect
     width="10.748302"
     height="41.798946"
     x="36.118813"
     y="350.53058"
     style="fill:#ffffff;fill-opacity:1;fill-rule:evenodd;stroke:none"
     id="rect4841" />
  <rect
     width="10.748302"
     height="41.798946"
     x="36.118813"
     y="428.15717"
     style="fill:#ffffff;fill-opacity:1;fill-rule:evenodd;stroke:none"
     id="rect4843" />
  <rect
     width="10.748302"
     height="41.798946"
     x="176.82791"
     y="40.024109"
     style="fill:#ffffff;fill-opacity:1;fill-rule:evenodd;stroke:none"
     id="rect4845" />
  <rect
     width="10.748302"
     height="41.798946"
     x="176.82791"
     y="117.65072"
     style="fill:#ffffff;fill-opacity:1;fill-rule:evenodd;stroke:none"
     id="rect4847" />
  <rect
     width="10.748302"
     height="41.798946"
     x="176.82791"
     y="195.27731"
     style="fill:#ffffff;fill-opacity:1;fill-rule:evenodd;stroke:none"
     id="rect4849" />
  <rect
     width="10.748302"
     height="41.798946"
     x="176.82791"
     y="272.90393"
     style="fill:#ffffff;fill-opacity:1;fill-rule:evenodd;stroke:none"
     id="rect4851" />
  <path
     d="m 290.49526,250.69744 0,29.98795 24.78081,0 0,-30.88364 4.47846,0 -3.28421,-120.91839 -105.09449,0 -3.2842,120.91839 4.47846,0 0,30.88364 24.7808,0 0,-29.98795 53.14437,0 z m 16.12246,-109.87152 1.79138,45.97884 -90.1663,0 1.79139,-45.97884 86.58353,0 z"
     style="fill:#ffffff;fill-opacity:1;fill-rule:evenodd;stroke:none"
     id="path4861"
     inkscape:connector-curvature="0" />
  <path
     d="m 207.12917,308.12676 16.05477,0 c 3.17805,5e-5 5.54792,0.14999 7.10957,0.44983 1.56162,0.29993 2.95888,0.92555 4.19178,1.87687 1.23285,0.95141 2.26024,2.21817 3.08219,3.80029 0.82188,1.5822 1.23284,3.35565 1.23288,5.32039 -4e-5,2.13026 -0.50689,4.08469 -1.52055,5.86329 -1.01373,1.77867 -2.38816,3.11264 -4.12328,4.00193 2.44745,0.80662 4.32872,2.18196 5.64383,4.12603 1.31503,1.9441 1.97256,4.22945 1.9726,6.85602 -4e-5,2.06819 -0.4247,4.0795 -1.27398,6.03392 -0.84935,1.95443 -2.00916,3.51591 -3.47945,4.68443 -1.47034,1.16852 -3.28312,1.88721 -5.43834,2.15608 -1.35163,0.16545 -4.61189,0.26887 -9.78081,0.31022 l -13.67121,0 0,-45.4793 z m 8.10958,7.56954 0,10.5167 5.31506,0 c 3.15979,3e-5 5.12325,-0.0517 5.8904,-0.15511 1.38811,-0.18611 2.47943,-0.729 3.27396,-1.62869 0.7945,-0.89963 1.19176,-2.08366 1.19179,-3.55211 -3e-5,-1.40632 -0.3425,-2.54899 -1.0274,-3.428 -0.68495,-0.87894 -1.70322,-1.4115 -3.05479,-1.59768 -0.80367,-0.10337 -3.11417,-0.15507 -6.9315,-0.15511 l -4.65752,0 z m 0,18.08624 0,12.16091 7.50684,0 c 2.92235,1e-5 4.77622,-0.0931 5.56163,-0.2792 1.20545,-0.24818 2.18718,-0.85311 2.9452,-1.81483 0.75797,-0.96169 1.13696,-2.24914 1.13699,-3.86233 -3e-5,-1.36498 -0.29227,-2.52317 -0.87671,-3.47455 -0.58451,-0.95134 -1.42925,-1.64418 -2.53425,-2.07852 -1.10504,-0.4343 -3.5023,-0.65146 -7.19177,-0.65148 l -6.54793,0 z m 32.35611,-25.65578 8.10958,0 0,24.63204 c -1e-5,3.90888 0.10044,6.4424 0.30137,7.60056 0.34702,1.86137 1.1735,3.35564 2.47944,4.48279 1.30593,1.12716 3.09131,1.69074 5.35616,1.69073 2.30134,1e-5 4.0365,-0.53255 5.20548,-1.59766 1.16891,-1.06511 1.87212,-2.37324 2.10958,-3.92438 0.23741,-1.55112 0.35614,-4.126 0.35616,-7.72466 l 0,-25.15942 8.10958,0 0,23.88749 c -3e-5,5.46002 -0.21921,9.31717 -0.65753,11.57147 -0.43839,2.25433 -1.24661,4.15706 -2.42466,5.70818 -1.17811,1.55115 -2.75344,2.78689 -4.72602,3.70722 -1.97262,0.92034 -4.54796,1.38051 -7.72601,1.38051 -3.83563,0 -6.74429,-0.50154 -8.72602,-1.5046 -1.98174,-1.00307 -3.54794,-2.30602 -4.69862,-3.90886 -1.15069,-1.60284 -1.90868,-3.28324 -2.27397,-5.0412 -0.52968,-2.60589 -0.79452,-6.4527 -0.79452,-11.54045 l 0,-24.25976 z m 38.54789,30.68147 7.8904,-0.86864 c 0.47487,2.99888 1.43834,5.20149 2.8904,6.60784 1.45204,1.40637 3.41094,2.10955 5.87671,2.10954 2.61185,10e-6 4.57988,-0.62561 5.9041,-1.87687 1.32417,-1.25124 1.98627,-2.71448 1.9863,-4.38972 -3e-5,-1.07544 -0.27857,-1.9906 -0.83562,-2.7455 -0.5571,-0.75487 -1.5297,-1.41152 -2.9178,-1.96995 -0.94979,-0.37225 -3.11418,-1.03407 -6.49314,-1.98545 -4.34704,-1.2202 -7.39726,-2.71964 -9.15067,-4.4983 -2.46576,-2.50246 -3.69863,-5.55303 -3.69863,-9.1517 0,-2.31632 0.5799,-4.48274 1.73972,-6.49925 1.15981,-2.01644 2.83104,-3.55206 5.01369,-4.60688 2.18264,-1.05473 4.81734,-1.58211 7.9041,-1.58216 5.04107,5e-5 8.83558,1.25129 11.38355,3.75375 2.54791,2.50254 3.8858,5.84265 4.01369,10.02034 l -8.10958,0.40329 c -0.34705,-2.33701 -1.09134,-4.01741 -2.23287,-5.04119 -1.14157,-1.02371 -2.8539,-1.53559 -5.13698,-1.53563 -2.35618,4e-5 -4.20092,0.54811 -5.53424,1.64421 -0.85845,0.70322 -1.28767,1.64424 -1.28766,2.82307 -1e-5,1.07549 0.40181,1.99582 1.20547,2.76102 1.02282,0.97208 3.50683,1.98548 7.45205,3.04022 3.94517,1.05481 6.86297,2.14577 8.75341,3.27291 1.89038,1.12718 3.36982,2.66797 4.43835,4.62238 1.06845,1.95445 1.6027,4.36905 1.60273,7.2438 -3e-5,2.60592 -0.6393,5.04637 -1.9178,7.32136 -1.27857,2.27501 -3.08678,3.96575 -5.42465,5.07222 -2.33792,1.10648 -5.25116,1.65971 -8.73971,1.65971 -5.07763,0 -8.97716,-1.3288 -11.69862,-3.98641 -2.72146,-2.65761 -4.34703,-6.53028 -4.8767,-11.61801 l 0,0 z"
     style="font-size:64px;fill:#ffffff;fill-opacity:1;stroke:none"
     id="flowRoot5763"
     inkscape:connector-curvature="0" />
  <rect
     width="21.496603"
     height="422.76651"
     x="346.02814"
     y="42.170013"
     style="fill:#ffffff;fill-opacity:1;fill-rule:evenodd;stroke:none"
     id="rect5771" />
  <rect
     width="10.748302"
     height="41.798946"
     x="176.82791"
     y="350.53058"
     style="fill:#ffffff;fill-opacity:1;fill-rule:evenodd;stroke:none"
     id="rect1899" />
  <rect
     width="10.748302"
     height="41.798946"
     x="176.82791"
     y="428.15717"
     style="fill:#ffffff;fill-opacity:1;fill-rule:evenodd;stroke:none"
     id="rect1901" />
</svg>
