<?xml version="1.0" encoding="UTF-8" standalone="no"?>
<!-- Created with Inkscape (http://www.inkscape.org/) -->

<svg
   xmlns:dc="http://purl.org/dc/elements/1.1/"
   xmlns:cc="http://creativecommons.org/ns#"
   xmlns:rdf="http://www.w3.org/1999/02/22-rdf-syntax-ns#"
   xmlns:svg="http://www.w3.org/2000/svg"
   xmlns="http://www.w3.org/2000/svg"
   xmlns:sodipodi="http://sodipodi.sourceforge.net/DTD/sodipodi-0.dtd"
   xmlns:inkscape="http://www.inkscape.org/namespaces/inkscape"
   width="500"
   height="500"
   id="svg2056"
   sodipodi:version="0.32"
   inkscape:version="0.48.2 r9819"
   version="1.0"
   sodipodi:docname="AJAX.svg">
  <defs
     id="defs2058" />
  <sodipodi:namedview
     id="base"
     pagecolor="#ffffff"
     bordercolor="#666666"
     borderopacity="1.0"
     gridtolerance="10000"
     guidetolerance="10"
     objecttolerance="10"
     inkscape:pageopacity="0.0"
     inkscape:pageshadow="2"
     inkscape:zoom="0.86731066"
     inkscape:cx="298.12083"
     inkscape:cy="168.61618"
     inkscape:document-units="px"
     inkscape:current-layer="layer1"
     showguides="true"
     inkscape:guide-bbox="true"
     inkscape:window-width="1280"
     inkscape:window-height="1004"
     inkscape:window-x="-8"
     inkscape:window-y="-8"
     showgrid="false"
     fit-margin-top="0"
     fit-margin-left="0"
     fit-margin-right="0"
     fit-margin-bottom="0"
     inkscape:window-maximized="1" />
  <metadata
     id="metadata2061">
    <rdf:RDF>
      <cc:Work
         rdf:about="">
        <dc:format>image/svg+xml</dc:format>
        <dc:type
           rdf:resource="http://purl.org/dc/dcmitype/StillImage" />
      </cc:Work>
    </rdf:RDF>
  </metadata>
  <g
     inkscape:label="Layer 1"
     inkscape:groupmode="layer"
     id="layer1"
     transform="translate(-338.40625,-247.53125)">
    <g
       id="g4545">
      <rect
         ry="39.845932"
         y="249.14993"
         x="340.03796"
         height="496.74591"
         width="496.74591"
         id="rect2064"
         style="fill:#ffffff;fill-opacity:1;fill-rule:nonzero;stroke:#000000;stroke-width:3.25408435;stroke-miterlimit:4;stroke-opacity:1;stroke-dasharray:none;stroke-dashoffset:0" />
      <g
         transform="matrix(0.8,0,0,0.8,-344.1604,180.2045)"
         id="g3652">
        <g
           transform="translate(914.3078,148.0385)"
           id="g3644"
           inkscape:label="Layer 1">
          <path
             transform="matrix(1.776687,0,0,2.034593,-192.2554,-248.5258)"
             d="m 390.42439,244.34138 c 0,67.86182 -62.99861,122.87468 -140.71133,122.87468 -77.71273,0 -140.71134,-55.01286 -140.71134,-122.87468 0,-67.86181 62.99861,-122.87467 140.71134,-122.87467 77.71272,0 140.71133,55.01286 140.71133,122.87467 z"
             sodipodi:ry="122.87468"
             sodipodi:rx="140.71133"
             sodipodi:cy="244.34138"
             sodipodi:cx="249.71306"
             id="path8679"
             style="fill:#ffffff;fill-opacity:1;fill-rule:nonzero;stroke:none"
             sodipodi:type="arc" />
          <path
             id="path3063"
             d="m 250,1.390623 c -137.22627,0 -248.59375,111.395057 -248.59375,248.625007 0,137.22993 111.36749,248.59376 248.59375,248.59375 137.22627,0 248.59374,-111.36382 248.59375,-248.59375 C 498.59375,112.78569 387.22627,1.390623 250,1.390623 z m 0,48.625 c 110.40002,1e-6 200,89.599987 200,200.000007 -10e-6,110.40003 -89.59997,200 -200,200 -110.40004,-10e-6 -200,-89.59998 -200,-200 C 50,139.61561 139.59997,50.015623 250,50.015623 z"
             style="fill:#d40000;fill-opacity:1;fill-rule:nonzero;stroke:none"
             inkscape:connector-curvature="0" />
        </g>
        <g
           id="g3648"
           transform="translate(600.2316,178.1396)">
          <path
             id="text8164"
             style="font-size:40px;font-style:normal;font-variant:normal;font-weight:bold;font-stretch:normal;text-align:start;line-height:125%;writing-mode:lr-tb;text-anchor:start;fill:#000000;fill-opacity:1;stroke:none;font-family:Arial"
             d="m 650.46275,95.732856 c 22.96933,2.4e-4 40.92427,8.311014 53.86491,24.932374 15.42061,19.68361 23.13088,52.32534 23.13109,97.92518 -2.1e-4,45.49067 -7.76439,78.18706 -23.29295,98.08912 -12.8327,16.40292 -30.73372,24.60433 -53.70305,24.60433 -23.07728,0 -41.67924,-8.99421 -55.8059,-26.98271 -14.12666,-17.98845 -21.1901,-50.05606 -21.1901,-96.20288 0,-45.27171 7.76428,-77.85877 23.29295,-97.76107 12.8326,-16.40266 30.73362,-24.604104 53.70305,-24.604344 l 0,0 z m 0,38.218694 c -5.49977,2.4e-4 -10.40633,1.77715 -14.71977,5.33096 -4.31366,3.55415 -7.65655,9.92392 -10.0289,19.10935 -3.12732,11.91959 -4.6911,31.98573 -4.69099,60.19855 -1.1e-4,28.21298 1.40191,47.59568 4.20572,58.14821 2.8037,10.5525 6.33541,17.57841 10.59505,21.07763 4.25941,3.49932 9.13912,5.24903 14.63889,5.24892 5.49966,1.1e-4 10.40622,-1.77691 14.71988,-5.33088 4.31333,-3.55399 7.65634,-9.92373 10.0289,-19.10942 3.1271,-11.80999 4.69076,-31.82148 4.69088,-60.03446 -1.2e-4,-28.21282 -1.40202,-47.59553 -4.20572,-58.14821 -2.8038,-10.55233 -6.33541,-17.60554 -10.59494,-21.15969 -4.25974,-3.55381 -9.13934,-5.33072 -14.639,-5.33096 l 0,0 z"
             inkscape:connector-curvature="0" />
          <path
             style="font-size:40px;font-style:normal;font-variant:normal;font-weight:normal;font-stretch:normal;text-align:start;line-height:125%;writing-mode:lr-tb;text-anchor:start;fill:#000000;fill-opacity:1;stroke:none;font-family:Arial"
             d="m 403.50639,267.96304 43.00375,0 c 1.37055,11.37269 5.05932,20.06625 11.06723,26.08061 6.0081,6.01441 13.28035,9.02159 21.81804,9.02159 9.16979,0 16.8906,-3.60868 23.16253,-10.82595 6.27117,-7.21724 9.40697,-16.94958 9.40697,-29.19712 0,-11.5913 -3.00394,-20.77692 -9.01193,-27.55687 -6.00801,-6.77972 -13.3338,-10.16964 -21.97672,-10.1698 -5.6914,1.6e-4 -12.48944,-2.98184 -20.39495,-0.68557 l 0,-37.56262 c 12.01508,0.3282 26.08727,1.75197 32.41093,-3.98917 6.32451,-5.74087 9.48639,-13.36818 9.48639,-22.88202 0,-8.09192 -2.31922,-14.5437 -6.95677,-19.35544 -4.63754,-4.81128 -10.80327,-7.21704 -18.49743,-7.21728 -7.58892,2.4e-4 -14.07114,2.73404 -19.44706,8.20149 -5.37573,5.46778 -8.64282,13.45052 -9.80209,23.94817 l -40.94844,0 c 2.84541,-14.54364 7.14048,-33.37967 12.88534,-42.07341 5.74405,-8.69331 13.75478,-15.52782 24.03118,-20.50356 10.27719,-4.975314 21.79198,-7.463144 34.54544,-7.463304 21.81807,1.6e-4 39.31496,7.217484 52.49011,21.651774 10.85593,11.81032 16.28438,25.15131 16.28438,40.02309 0,21.1052 -3.1579,37.94541 -25.39754,50.52082 13.28035,2.95268 15.93797,9.56848 23.89594,19.84749 7.9573,10.27923 11.9358,22.69079 11.9367,37.23458 -9e-4,21.10506 -7.431,39.09355 -22.29242,53.96547 -14.86209,14.87194 -33.35952,22.30792 -55.49407,22.30792 -20.97538,0 -38.36619,-6.2605 -52.1735,-18.7813 -13.80824,-12.52081 -21.81808,-34.30933 -24.03201,-54.53959 l 0,0 z"
             id="text2087"
             sodipodi:nodetypes="ccssssssccsssssccssscscsccsccc"
             inkscape:connector-curvature="0" />
        </g>
      </g>
    </g>
  </g>
</svg>
