<?xml version="1.0" encoding="UTF-8" standalone="no"?>
<!-- Created with Inkscape (http://www.inkscape.org/) -->

<svg
   xmlns:dc="http://purl.org/dc/elements/1.1/"
   xmlns:cc="http://creativecommons.org/ns#"
   xmlns:rdf="http://www.w3.org/1999/02/22-rdf-syntax-ns#"
   xmlns:svg="http://www.w3.org/2000/svg"
   xmlns="http://www.w3.org/2000/svg"
   xmlns:sodipodi="http://sodipodi.sourceforge.net/DTD/sodipodi-0.dtd"
   xmlns:inkscape="http://www.inkscape.org/namespaces/inkscape"
   width="500.00058"
   height="630.00031"
   id="svg11913"
   sodipodi:version="0.32"
   inkscape:version="0.48.2 r9819"
   version="1.0"
   sodipodi:docname="Aa.svg">
  <defs
     id="defs11915" />
  <sodipodi:namedview
     id="base"
     pagecolor="#ffffff"
     bordercolor="#666666"
     borderopacity="1.0"
     gridtolerance="10000"
     guidetolerance="10"
     objecttolerance="10"
     inkscape:pageopacity="0.0"
     inkscape:pageshadow="2"
     inkscape:zoom="1"
     inkscape:cx="242.5862"
     inkscape:cy="268.0711"
     inkscape:document-units="px"
     inkscape:current-layer="layer1"
     inkscape:window-width="1280"
     inkscape:window-height="1004"
     inkscape:window-x="-8"
     inkscape:window-y="-8"
     showgrid="false"
     fit-margin-top="0"
     fit-margin-left="0"
     fit-margin-right="0"
     fit-margin-bottom="0"
     inkscape:window-maximized="1" />
  <metadata
     id="metadata11918">
    <rdf:RDF>
      <cc:Work
         rdf:about="">
        <dc:format>image/svg+xml</dc:format>
        <dc:type
           rdf:resource="http://purl.org/dc/dcmitype/StillImage" />
      </cc:Work>
    </rdf:RDF>
  </metadata>
  <g
     inkscape:label="Layer 1"
     inkscape:groupmode="layer"
     id="layer1"
     transform="translate(-449.99986,-503.07634)">
    <g
       id="g14654">
      <g
         inkscape:label="Layer 1"
         id="g10108"
         transform="matrix(1.250001,0,0,1.26,380.8238,236.8407)">
        <g
           id="g4672"
           transform="translate(334.1429,296.3621)">
          <g
             id="g4679"
             transform="matrix(0.985222,0,0,0.976563,-278.8021,-85.06397)">
            <rect
               style="fill:#003399;fill-opacity:1;stroke:none"
               id="rect1363"
               width="406"
               height="512"
               x="0"
               y="0"
               rx="38"
               ry="38" />
            <rect
               style="fill:#ffffff;fill-opacity:1;stroke:none"
               id="rect1365"
               width="394"
               height="500"
               x="6"
               y="6"
               rx="32"
               ry="32" />
            <rect
               style="fill:#003399;fill-opacity:1;stroke:none"
               width="370"
               height="476"
               x="18.509384"
               y="18"
               id="rect4005"
               rx="20"
               ry="20" />
          </g>
        </g>
      </g>
      <path
         sodipodi:nodetypes="ccccscsscccccccccc"
         d="m 646.29994,1069.2741 -83.30336,0 0,-372.32421 212.87148,0 c 0,0 30.64785,3.46396 44.05095,16.80405 15.28394,15.21206 17.08469,44.04421 17.08469,44.04421 0,0 0,111.03769 0,157.48203 0,5.98651 -6.26448,18.44612 -24.30931,28.81532 -18.04484,10.36921 -47.86995,8.91977 -47.86995,8.91977 l -118.5245,0 0,116.25883 z m 0,-296.73799 0,107.68981 101.55165,0 c 7.33977,0 13.24569,-5.87813 13.24569,-13.18343 l 0,-81.31775 c 0,-7.30532 -5.90592,-13.18863 -13.24569,-13.18863 l -101.55165,0 z"
         style="fill:#ffffff;fill-rule:evenodd;stroke:none"
         id="path3878"
         inkscape:connector-curvature="0" />
      <path
         id="path11973"
         d="m 700.00013,552.01643 -208.79756,66.57314 0,66.10758 208.79756,-66.57313 208.79757,66.57313 0,-66.10758 -208.79757,-66.57314 z"
         style="fill:#ffffff;fill-rule:evenodd;stroke:none"
         inkscape:connector-curvature="0" />
    </g>
  </g>
</svg>
