<?xml version="1.0" encoding="UTF-8" standalone="no"?>
<!-- Created with Inkscape (http://www.inkscape.org/) -->

<svg
   xmlns:dc="http://purl.org/dc/elements/1.1/"
   xmlns:cc="http://creativecommons.org/ns#"
   xmlns:rdf="http://www.w3.org/1999/02/22-rdf-syntax-ns#"
   xmlns:svg="http://www.w3.org/2000/svg"
   xmlns="http://www.w3.org/2000/svg"
   xmlns:sodipodi="http://sodipodi.sourceforge.net/DTD/sodipodi-0.dtd"
   xmlns:inkscape="http://www.inkscape.org/namespaces/inkscape"
   version="1.0"
   width="497.1875"
   height="497.21875"
   id="svg8039"
   inkscape:version="0.48.2 r9819"
   sodipodi:docname="AJAX.svg">
  <metadata
     id="metadata15">
    <rdf:RDF>
      <cc:Work
         rdf:about="">
        <dc:format>image/svg+xml</dc:format>
        <dc:type
           rdf:resource="http://purl.org/dc/dcmitype/StillImage" />
      </cc:Work>
    </rdf:RDF>
  </metadata>
  <sodipodi:namedview
     pagecolor="#ffffff"
     bordercolor="#666666"
     borderopacity="1"
     objecttolerance="10"
     gridtolerance="10"
     guidetolerance="10"
     inkscape:pageopacity="0"
     inkscape:pageshadow="2"
     inkscape:window-width="1280"
     inkscape:window-height="1004"
     id="namedview13"
     showgrid="false"
     fit-margin-top="0"
     fit-margin-left="0"
     fit-margin-right="0"
     fit-margin-bottom="0"
     inkscape:zoom="0.94400011"
     inkscape:cx="151.49507"
     inkscape:cy="257.51315"
     inkscape:window-x="-8"
     inkscape:window-y="-8"
     inkscape:window-maximized="1"
     inkscape:current-layer="g8079" />
  <defs
     id="defs8041" />
  <g
     transform="translate(-124.99985,-285.14332)"
     id="layer1">
    <g
       id="g8101">
      <g
         transform="translate(123.5936,283.7527)"
         id="g8079">
        <path
           d="m 481.27942,250.19844 a 235.16949,239.93641 0 0 1 -470.338984,0 235.16949,239.93641 0 1 1 470.338984,0 z"
           style="fill:#ffffff;fill-opacity:1;fill-rule:nonzero;stroke:none"
           id="path8679"
           inkscape:connector-curvature="0" />
        <path
           d="m 250,1.390623 c -137.22627,0 -248.59375,111.395057 -248.59375,248.625007 0,137.22993 111.36749,248.59376 248.59375,248.59375 137.22627,0 248.59374,-111.36382 248.59375,-248.59375 C 498.59375,112.78569 387.22627,1.390623 250,1.390623 z m 0,48.625 c 110.40002,1e-6 200,89.599987 200,200.000007 -10e-6,110.40003 -89.59997,200 -200,200 -110.40004,-10e-6 -200,-89.59998 -200,-200 C 50,139.61561 139.59997,50.015623 250,50.015623 z"
           style="fill:#d40000;fill-opacity:1;fill-rule:nonzero;stroke:none"
           id="path3063"
           inkscape:connector-curvature="0" />
      </g>
      <g
         transform="translate(1.193183e-6,-2.760189)"
         id="g8096">
        <path
           d="m 212.06547,514.54291 329.23646,0 c 36.24727,0 36.39795,44.88476 0,44.88476 l -329.23646,0 c -39.09763,0 -42.49215,-44.88476 0,-44.88476 z"
           style="fill:#000000;fill-opacity:1;fill-rule:nonzero;stroke:none"
           id="rect8083"
           inkscape:connector-curvature="0" />
        <path
           d="m 334.47517,464.45806 20.24477,0 c -3.10382,11.28632 -8.26492,19.66872 -15.48337,25.14728 -7.2186,5.47853 -16.37692,8.21783 -27.47504,8.21783 -13.73167,0 -25.01795,-4.69087 -33.85885,-14.07261 -8.84094,-9.3817 -13.2614,-22.20808 -13.26137,-38.47918 -3e-5,-17.2115 4.44395,-30.57868 13.3319,-40.10156 8.88792,-9.5227 20.5739,-14.2841 35.05802,-14.28421 12.64999,1.1e-4 22.9252,3.7387 30.82567,11.21575 4.70254,4.42054 8.22949,10.76906 10.5809,19.04561 l -20.66802,0 c -3.1017,-7.96928 -13.77001,-11.95195 -21.79665,-12.41491 -7.66528,7e-5 -13.88451,2.75111 -18.65761,8.25307 -4.77318,5.50215 -7.15977,14.41362 -7.15973,26.73441 -4e-5,13.07331 2.35126,22.38447 7.05391,27.93353 4.70257,5.54913 10.81598,8.32365 18.34022,8.32365 9.39722,-0.52011 19.93627,-6.31313 22.92525,-15.51866 l 0,0 z m 38.09122,-19.18668 0,-52.62229 19.82153,0 0,35.76343 9.66388,-8.18257 0,13.40247 -9.66388,8.18254 0,54.24469 -19.82153,0 0,-37.3858 -9.66388,8.18257 0,-13.40247 9.66388,-8.18257 z m 35.48126,12.27384 c -4e-5,-6.58361 1.62237,-12.95564 4.86719,-19.11615 3.24481,-6.16036 7.8416,-10.86297 13.79043,-14.10785 5.94879,-3.24471 12.59123,-4.86712 19.92735,-4.86719 11.33327,7e-5 20.62092,3.67987 27.863,11.03939 7.24196,7.35963 10.86296,16.65906 10.86307,27.89829 -1.1e-4,11.33334 -3.65639,20.72678 -10.96886,28.18042 -7.31264,7.45364 -16.51802,11.18046 -27.61614,11.18046 -6.86586,0 -13.41425,-1.55183 -19.64518,-4.65558 -6.231,-3.10371 -10.96886,-7.65351 -14.21367,-13.64932 -3.24482,-5.99582 -4.86723,-13.29665 -4.86719,-21.90247 l 0,0 z m 20.31531,1.05809 c -4e-5,7.43017 1.76344,13.12033 5.29043,17.0705 3.52692,3.95023 7.87685,5.92531 13.04976,5.92531 5.17284,0 9.511,-1.97508 13.01451,-5.92531 3.50337,-3.95017 5.25511,-9.68735 5.25519,-17.21157 -8e-5,-7.33605 -1.75182,-12.97919 -5.25519,-16.92942 -3.50351,-3.95017 -7.84167,-5.92525 -13.01451,-5.92532 -5.17291,7e-5 -9.52284,1.97515 -13.04976,5.92532 -3.52699,3.95023 -5.29047,9.6404 -5.29043,17.07049 l 0,0 z"
           style="font-size:40px;font-style:normal;font-variant:normal;font-weight:normal;font-stretch:normal;text-align:start;line-height:125%;writing-mode:lr-tb;text-anchor:start;fill:#000000;fill-opacity:1;stroke:none;font-family:Arial"
           id="text8086"
           inkscape:connector-curvature="0" />
        <path
           d="m 265,677.75665 0,-17.82731 48.70615,-63.4973 -43.20299,0 0,-16.55871 67.87234,0 0,15.35685 -50.79354,66.03453 52.75443,0 0,16.49194 -75.33639,0 z m 82.99021,-36.45586 c 0,-6.23175 1.45487,-12.2632 4.36461,-18.09439 2.90968,-5.83109 7.0318,-10.28235 12.36629,-13.3538 5.33444,-3.07131 11.29092,-4.60699 17.86944,-4.60707 10.16289,8e-5 18.49142,3.48319 24.98566,10.44934 6.49405,6.9663 9.74115,15.76868 9.74121,26.40713 -6e-5,10.72759 -3.27877,19.61898 -9.83612,26.67423 -6.55747,7.05525 -14.81218,10.58288 -24.76422,10.58288 -6.15681,0 -12.02896,-1.46894 -17.61646,-4.40675 -5.5875,-2.93786 -9.83612,-7.24444 -12.7458,-12.91981 -2.90974,-5.67533 -4.36461,-12.58592 -4.36461,-20.73176 l 0,0 z m 18.21738,1.00154 c -3e-5,7.03304 1.58133,12.41907 4.74409,16.15809 3.16273,3.73906 7.06342,5.60861 11.70216,5.60857 4.63861,4e-5 8.52877,-1.86951 11.67047,-5.60857 3.14162,-3.73902 4.71243,-9.16957 4.7125,-16.29164 -7e-5,-6.94392 -1.57088,-12.28543 -4.7125,-16.02456 -3.1417,-3.739 -7.03186,-5.60851 -11.67047,-5.60858 -4.63874,7e-5 -8.53943,1.86958 -11.70216,5.60858 -3.16276,3.73913 -4.74412,9.12516 -4.74409,16.15811 l 0,0 z m 65.08914,35.45432 0,-97.88332 17.77457,0 0,97.88332 -17.77457,0 z m 35.92869,0 0,-97.88332 17.77458,0 0,97.88332 -17.77458,0 z"
           style="font-size:40px;font-style:normal;font-variant:normal;font-weight:bold;font-stretch:normal;text-align:start;line-height:125%;writing-mode:lr-tb;text-anchor:start;fill:#000000;fill-opacity:1;stroke:none;font-family:Arial"
           id="text8090"
           inkscape:connector-curvature="0" />
      </g>
    </g>
  </g>
</svg>
