<?xml version="1.0" encoding="UTF-8" standalone="no"?>
<!-- Created with Inkscape (http://www.inkscape.org/) -->

<svg
   xmlns:dc="http://purl.org/dc/elements/1.1/"
   xmlns:cc="http://creativecommons.org/ns#"
   xmlns:rdf="http://www.w3.org/1999/02/22-rdf-syntax-ns#"
   xmlns:svg="http://www.w3.org/2000/svg"
   xmlns="http://www.w3.org/2000/svg"
   xmlns:sodipodi="http://sodipodi.sourceforge.net/DTD/sodipodi-0.dtd"
   xmlns:inkscape="http://www.inkscape.org/namespaces/inkscape"
   version="1.0"
   width="400.00012"
   height="399.99991"
   id="svg3878"
   inkscape:version="0.48.2 r9819"
   sodipodi:docname="AJAX.svg">
  <metadata
     id="metadata40">
    <rdf:RDF>
      <cc:Work
         rdf:about="">
        <dc:format>image/svg+xml</dc:format>
        <dc:type
           rdf:resource="http://purl.org/dc/dcmitype/StillImage" />
      </cc:Work>
    </rdf:RDF>
  </metadata>
  <sodipodi:namedview
     pagecolor="#ffffff"
     bordercolor="#666666"
     borderopacity="1"
     objecttolerance="10"
     gridtolerance="10"
     guidetolerance="10"
     inkscape:pageopacity="0"
     inkscape:pageshadow="2"
     inkscape:window-width="1280"
     inkscape:window-height="1004"
     id="namedview38"
     showgrid="false"
     fit-margin-top="0"
     fit-margin-left="0"
     fit-margin-right="0"
     fit-margin-bottom="0"
     inkscape:zoom="1.1800003"
     inkscape:cx="107.15523"
     inkscape:cy="218.99851"
     inkscape:window-x="-8"
     inkscape:window-y="-8"
     inkscape:window-maximized="1"
     inkscape:current-layer="svg3878" />
  <defs
     id="defs3880">
    <pattern
       patternUnits="userSpaceOnUse"
       width="370"
       height="476"
       patternTransform="translate(18.50938,18)"
       id="pattern4002">
      <rect
         ry="20"
         rx="20"
         y="0"
         x="0"
         height="476"
         width="370"
         id="rect2240"
         style="fill:#00e5ff;fill-opacity:1" />
    </pattern>
    <pattern
       patternUnits="userSpaceOnUse"
       width="370"
       height="476"
       patternTransform="translate(18.50938,18)"
       id="pattern7074">
      <rect
         ry="20"
         rx="20"
         y="0"
         x="0"
         height="476"
         width="370"
         id="rect7076"
         style="fill:#00e5ff;fill-opacity:1" />
    </pattern>
    <pattern
       patternUnits="userSpaceOnUse"
       width="370"
       height="476"
       patternTransform="translate(18.50938,18)"
       id="pattern7217">
      <rect
         ry="20"
         rx="20"
         y="0"
         x="0"
         height="476"
         width="370"
         id="rect7219"
         style="fill:#00e5ff;fill-opacity:1" />
    </pattern>
  </defs>
  <g
     transform="translate(-1542.2297,-152.57558)"
     id="layer1">
    <g
       id="g7324">
      <g
         transform="translate(1267.944,-157.501)"
         id="g3934">
        <g
           transform="translate(218.9449,96.7782)"
           id="g5871">
          <g
             transform="translate(334.1429,296.3621)"
             id="g4672">
            <g
               transform="matrix(0.985222,0,0,0.976563,-278.8021,-85.06397)"
               id="g4679">
              <g
                 transform="matrix(1,0,0,0.995024,0,2.04826)"
                 id="g5881">
                <path
                   d="m 38,0 330,0 c 21.052,0 38,16.948 38,38 l 0,335.64805 c 0,21.052 -16.948,38 -38,38 l -330,0 c -21.052,0 -38,-16.948 -38,-38 L 0,38 C 0,16.948 16.948,0 38,0 z"
                   style="fill:#003399;fill-opacity:1;stroke:none"
                   id="rect1363"
                   inkscape:connector-curvature="0" />
                <path
                   d="m 38,6 330,0 c 17.728,0 32,14.272 32,32 l 0,333.60005 c 0,17.728 -14.272,32 -32,32 l -330,0 c -17.728,0 -32,-14.272 -32,-32 L 6,38 C 6,20.272 20.272,6 38,6 z"
                   style="fill:#ffffff;fill-opacity:1"
                   id="rect1365"
                   inkscape:connector-curvature="0" />
                <path
                   d="m 38.509384,18 329.999996,0 c 11.08,0 20,8.92 20,20 l 0,333.60005 c 0,11.08 -8.92,20 -20,20 l -329.999996,0 c -11.08,0 -20,-8.92 -20,-20 l 0,-333.60005 c 0,-11.08 8.92,-20 20,-20 z"
                   style="fill:#003399;fill-opacity:1;stroke:none"
                   id="rect4005"
                   inkscape:connector-curvature="0" />
              </g>
            </g>
          </g>
        </g>
      </g>
      <g
         transform="matrix(0.800356,0,0,0.800356,839.8438,-81.7375)"
         id="g7305">
        <path
           d="m 1356.0221,709.20901 -455.65148,-1e-5 227.82568,-394.60565 227.8258,394.60566 z"
           style="fill:#ffffff;fill-opacity:1;fill-rule:nonzero;stroke:none"
           id="path3725"
           inkscape:connector-curvature="0" />
        <g
           transform="translate(63.14097,42.24923)"
           id="g6959">
          <g
             transform="matrix(0.861528,0,0,0.794592,343.0558,249.6858)"
             id="g5756">
            <path
               d="m 733.14165,373.3532 c -35.18039,0.44612 -63.59643,29.14093 -63.59643,64.42654 0,35.56345 28.86309,64.42654 64.42654,64.42654 35.56345,0 64.42654,-28.86309 64.42654,-64.42654 0,-35.56345 -28.86309,-64.42654 -64.42654,-64.42654 -0.27784,0 -0.5531,-0.004 -0.83011,0 z m 0.1239,9.91178 c 0.23439,-0.003 0.47112,0 0.70621,0 30.09215,0 54.51477,24.42261 54.51477,54.51476 0,30.09215 -24.42262,54.51476 -54.51477,54.51476 -30.09215,0 -54.51476,-24.42261 -54.51476,-54.51476 0,-29.85706 24.04053,-54.13728 53.80855,-54.51476 z"
               style="fill:#000000;fill-opacity:1;fill-rule:nonzero;stroke:none"
               id="opona"
               inkscape:connector-curvature="0" />
            <path
               d="m 262.5,562.5 a 25,25 0 1 1 -50,0 25,25 0 1 1 50,0 z"
               transform="matrix(0.396471,0,0,0.396471,639.8099,214.7648)"
               style="fill:#000000;fill-opacity:1;fill-rule:nonzero;stroke:none"
               id="piasta"
               inkscape:connector-curvature="0" />
            <path
               d="m 941.28895,373.3532 c -35.18039,0.44612 -63.59643,29.14093 -63.59643,64.42654 0,35.56345 28.86309,64.42654 64.42654,64.42654 35.56345,0 64.42654,-28.86309 64.42654,-64.42654 0,-35.56345 -28.86309,-64.42654 -64.42654,-64.42654 -0.27784,0 -0.5531,-0.004 -0.83011,0 z m 0.1239,9.91178 c 0.23439,-0.003 0.47112,0 0.70621,0 30.09215,0 54.51476,24.42261 54.51476,54.51476 0,30.09215 -24.42261,54.51476 -54.51476,54.51476 -30.09215,0 -54.51476,-24.42261 -54.51476,-54.51476 0,-29.85706 24.04053,-54.13728 53.80855,-54.51476 z"
               style="fill:#000000;fill-opacity:1;fill-rule:nonzero;stroke:none"
               id="path1324"
               inkscape:connector-curvature="0" />
            <path
               d="m 262.5,562.5 a 25,25 0 1 1 -50,0 25,25 0 1 1 50,0 z"
               transform="matrix(0.396471,0,0,0.396471,847.9572,214.7648)"
               style="fill:#000000;fill-opacity:1;fill-rule:nonzero;stroke:none"
               id="path1326"
               inkscape:connector-curvature="0" />
            <path
               d="m 852.91304,437.77974 89.20594,0"
               style="fill:none;stroke:#000000;stroke-width:9.91177464;stroke-linecap:butt;stroke-linejoin:miter;stroke-miterlimit:4;stroke-opacity:1;stroke-dasharray:none"
               id="wzdlozlancucha"
               inkscape:connector-curvature="0" />
            <path
               d="M 852.91304,437.77974 757.1653,357.49436"
               style="fill:none;stroke:#000000;stroke-width:9.91177464;stroke-linecap:butt;stroke-linejoin:miter;stroke-miterlimit:4;stroke-opacity:1;stroke-dasharray:none"
               id="ukos-damka"
               inkscape:connector-curvature="0" />
            <path
               d="m 852.91304,437.77974 39.6471,-123.89719"
               style="fill:none;stroke:#000000;stroke-width:12.81200218;stroke-linecap:butt;stroke-linejoin:miter;stroke-miterlimit:4;stroke-opacity:1;stroke-dasharray:none"
               id="slupek-siodelko"
               inkscape:connector-curvature="0" />
            <path
               d="m 733.97174,437.77974 c 0,0 36.0294,-126.24483 36.67357,-127.8619 2.73105,-6.85585 3.63598,-9.17434 11.89413,-10.90295 1.20635,-0.25252 25.14467,0 25.14467,0"
               style="fill:none;stroke:#000000;stroke-width:9.91177464;stroke-linecap:butt;stroke-linejoin:miter;stroke-miterlimit:4;stroke-opacity:1;stroke-dasharray:none"
               id="kierownica"
               inkscape:connector-curvature="0" />
            <path
               d="m 587.5,562.5 a 50,50 0 1 1 -100,0 50,50 0 1 1 100,0 z"
               transform="matrix(0.396471,0,0,0.396471,639.8099,214.7648)"
               style="fill:#000000;fill-opacity:1;fill-rule:nonzero;stroke:none"
               id="kolo=pedalowe"
               inkscape:connector-curvature="0" />
            <path
               d="m 887.60425,323.79433 24.01933,-1.27128 4.54349,-18.55227 c 0,0 -41.93771,-0.55235 -47.00383,0 -4.70178,0.51262 -2.90665,9.05571 0,9.91177 49.4917,14.57622 18.44101,9.91178 18.44101,9.91178 z"
               style="fill:#000000;fill-opacity:1;fill-rule:evenodd;stroke:none"
               id="siodelko"
               inkscape:connector-curvature="0" />
            <path
               d="M 945.87098,442.41731 887.63476,328.60825"
               style="fill:none;stroke:#000000;stroke-width:12.16281986;stroke-linecap:butt;stroke-linejoin:miter;stroke-miterlimit:4;stroke-opacity:1;stroke-dasharray:none"
               id="path4256"
               inkscape:connector-curvature="0" />
          </g>
          <path
             d="m 1080.6483,628.94725 41.9213,0 -3.8267,-18.54986 -2.8013,-55.58866 20.7702,-75.86913 -50.0026,-102.53049 -15.1523,11.61676 -54.5797,94.32562 24.1071,0 30.7143,-47.32142 25.3571,34.64285 -52.3214,41.96429 18.75,49.28571 -14.0009,11.28571 32.1438,0 -12.0715,-56.82142 27.1429,-11.42857 -6.0714,53.21428 12.8571,52.42858 -23.9286,10.07142 0.9926,9.27433 z"
             style="fill:#000000;fill-rule:evenodd;stroke:none;stroke-width:1px;stroke-linecap:butt;stroke-linejoin:miter;stroke-opacity:1"
             id="path4258"
             inkscape:connector-curvature="0" />
          <path
             d="m 1090.7122,365.77189 c 0,10.59449 -8.5984,19.19291 -19.1929,19.19291 -10.5945,0 -19.1929,-8.59842 -19.1929,-19.19291 0,-10.59447 8.5984,-19.19289 19.1929,-19.19289 10.5945,0 19.1929,8.59842 19.1929,19.19289 z"
             style="fill:#000000;fill-opacity:1;fill-rule:nonzero;stroke:none"
             id="path6956"
             inkscape:connector-curvature="0" />
        </g>
        <path
           d="m 1279.087,655.02937 -7.6563,17.25 50.5938,0 -9.0625,-17.25 -33.875,0 z m -88.6563,0 0,17.25 53.25,0 12,-17.25 -65.25,0 z m -188.8437,0 12,17.25 48.125,0 14,-17.25 -74.125,0 z m -61.03128,0 -10.1875,17.25 49.2188,0 0,-17.25 -39.0313,0 z m 155.68748,0 -2,17.25 36.3438,0 0,-17.25 -34.3438,0 z"
           style="fill:#000000;fill-rule:evenodd;stroke:none;stroke-width:0.68429613000000000px;stroke-linecap:butt;stroke-linejoin:miter;stroke-opacity:1"
           id="path3712"
           inkscape:connector-curvature="0" />
      </g>
    </g>
  </g>
</svg>
