<?xml version="1.0" encoding="UTF-8" standalone="no"?>
<!-- Created with Inkscape (http://www.inkscape.org/) -->

<svg
   xmlns:dc="http://purl.org/dc/elements/1.1/"
   xmlns:cc="http://creativecommons.org/ns#"
   xmlns:rdf="http://www.w3.org/1999/02/22-rdf-syntax-ns#"
   xmlns:svg="http://www.w3.org/2000/svg"
   xmlns="http://www.w3.org/2000/svg"
   xmlns:sodipodi="http://sodipodi.sourceforge.net/DTD/sodipodi-0.dtd"
   xmlns:inkscape="http://www.inkscape.org/namespaces/inkscape"
   width="497.1875"
   height="497.21875"
   id="svg2"
   sodipodi:version="0.32"
   inkscape:version="0.48.2 r9819"
   version="1.0"
   sodipodi:docname="Aa.svg">
  <defs
     id="defs4" />
  <sodipodi:namedview
     id="base"
     pagecolor="#ffffff"
     bordercolor="#666666"
     borderopacity="1.0"
     gridtolerance="10000"
     guidetolerance="10"
     objecttolerance="10"
     inkscape:pageopacity="0.0"
     inkscape:pageshadow="2"
     inkscape:zoom="1.4"
     inkscape:cx="134.3995"
     inkscape:cy="265.23802"
     inkscape:document-units="px"
     inkscape:current-layer="g4644"
     inkscape:window-width="1280"
     inkscape:window-height="1004"
     inkscape:window-x="-8"
     inkscape:window-y="-8"
     showgrid="false"
     fit-margin-top="0"
     fit-margin-left="0"
     fit-margin-right="0"
     fit-margin-bottom="0"
     inkscape:window-maximized="1" />
  <metadata
     id="metadata7">
    <rdf:RDF>
      <cc:Work
         rdf:about="">
        <dc:format>image/svg+xml</dc:format>
        <dc:type
           rdf:resource="http://purl.org/dc/dcmitype/StillImage" />
      </cc:Work>
    </rdf:RDF>
  </metadata>
  <g
     inkscape:label="Layer 1"
     inkscape:groupmode="layer"
     id="layer1"
     transform="translate(-158.57125,-305.14332)">
    <g
       id="g4644">
      <g
         inkscape:label="Layer 1"
         id="g1922"
         transform="translate(157.165,303.7527)">
        <path
           sodipodi:type="arc"
           style="fill:#ffffff;fill-opacity:1;fill-rule:nonzero;stroke:none"
           id="path8679"
           sodipodi:cx="249.71306"
           sodipodi:cy="244.34138"
           sodipodi:rx="140.71133"
           sodipodi:ry="122.87468"
           d="m 390.42439,244.34138 c 0,67.86182 -62.99861,122.87468 -140.71133,122.87468 -77.71273,0 -140.71134,-55.01286 -140.71134,-122.87468 0,-67.86181 62.99861,-122.87467 140.71134,-122.87467 77.71272,0 140.71133,55.01286 140.71133,122.87467 z"
           transform="matrix(1.776687,0,0,2.034593,-192.2554,-248.5258)" />
        <path
           style="fill:#d40000;fill-opacity:1;fill-rule:nonzero;stroke:none"
           d="m 250,1.390623 c -137.22627,0 -248.59375,111.395057 -248.59375,248.625007 0,137.22993 111.36749,248.59376 248.59375,248.59375 137.22627,0 248.59374,-111.36382 248.59375,-248.59375 C 498.59375,112.78569 387.22627,1.390623 250,1.390623 z m 0,48.625 c 110.40002,1e-6 200,89.599987 200,200.000007 -10e-6,110.40003 -89.59997,200 -200,200 -110.40004,-10e-6 -200,-89.59998 -200,-200 C 50,139.61561 139.59997,50.015623 250,50.015623 z"
           id="path3063"
           inkscape:connector-curvature="0" />
      </g>
      <path
         sodipodi:nodetypes="ccccccc"
         id="rect1969"
         d="m 348.02043,423.31716 c -19.92118,0 -32.93884,12.16947 -32.93884,31.01915 l 0,142.0048 186.97962,0 0,-142.0048 c 0,-18.84968 -13.01768,-31.01915 -32.93882,-31.01915 l -121.10196,0 z"
         style="fill:#ff9700;fill-opacity:1;fill-rule:nonzero;stroke:#000000;stroke-width:5.02747011;stroke-miterlimit:4;stroke-opacity:1;stroke-dasharray:none;stroke-dashoffset:0"
         inkscape:connector-curvature="0" />
      <path
         id="rect3746"
         d="m 312.56784,609.23165 0,74.68935 22.71638,0 0,-31.95586 64.7024,0 c 1.77592,2.59548 4.782,4.30478 8.20801,4.30477 3.42607,0 6.44818,-1.70929 8.22408,-4.30477 l 65.43982,0 0,31.95586 22.71642,0 0,-74.68935 -22.71642,0 0,31.95585 -65.43982,0 c -1.7759,-2.59548 -4.79801,-4.30477 -8.22408,-4.30477 -3.42602,0 -6.43209,1.70929 -8.20801,4.30477 l -64.7024,0 0,-31.95585 -22.71638,0 z"
         style="fill:#000000;fill-opacity:1;fill-rule:nonzero;stroke:none"
         inkscape:connector-curvature="0" />
      <path
         sodipodi:type="arc"
         style="fill:#000000;fill-opacity:1;fill-rule:nonzero;stroke:none"
         id="path4670"
         sodipodi:cx="96.60714"
         sodipodi:cy="306.96423"
         sodipodi:rx="12.321428"
         sodipodi:ry="12.321428"
         d="m 108.92857,306.96423 c 0,6.80494 -5.51649,12.32143 -12.32143,12.32143 -6.804937,0 -12.321429,-5.51649 -12.321429,-12.32143 0,-6.80493 5.516492,-12.32142 12.321429,-12.32142 6.80494,0 12.32143,5.51649 12.32143,12.32142 z"
         transform="matrix(1.100872,0,0,1.100872,302.2193,308.648)" />
    </g>
  </g>
</svg>
